/* XPM */
static char *_0337dac021e426bcb624cafc61575cchto44xUxzU0q4fTV[] = {
/* columns rows colors chars-per-pixel */
"60 60 250 2 ",
"   c #B8962D",
".  c #B99837",
"X  c #A9933A",
"o  c #C69C3A",
"O  c #CA9B36",
"+  c #C3A42E",
"@  c #C4A33C",
"#  c #CAA43C",
"$  c #CEAA3C",
"%  c #C7A435",
"&  c #D2AB3A",
"*  c #D9B43B",
"=  c #D1AF33",
"-  c #E4B937",
";  c #F1C63C",
":  c #A9974C",
">  c #B79B46",
",  c #B79E56",
"<  c #AE9A55",
"1  c #BCA24A",
"2  c #BBA65A",
"3  c #AFA44A",
"4  c #BD9C66",
"5  c #BAA866",
"6  c #BFAA78",
"7  c #C29F42",
"8  c #C4A345",
"9  c #CAA543",
"0  c #CDA944",
"q  c #C5AA4C",
"w  c #CDAB4B",
"e  c #C5A549",
"r  c #D1AB45",
"t  c #D3AE4B",
"y  c #D8A948",
"u  c #CDB34B",
"i  c #D4B344",
"p  c #D6B24C",
"a  c #DAB44C",
"s  c #DCB94D",
"d  c #DBB744",
"f  c #C6A957",
"g  c #D1AE51",
"h  c #D2AF5A",
"j  c #CEB354",
"k  c #C7B55B",
"l  c #D4B352",
"z  c #DAB553",
"x  c #DDB954",
"c  c #DAB65B",
"v  c #DDBA5C",
"b  c #D3B759",
"n  c #E3BC4C",
"m  c #E4BA47",
"M  c #E3BD53",
"N  c #EBBC55",
"B  c #E2BD5B",
"V  c #EBBA59",
"C  c #F1BD5A",
"Z  c #C3AC62",
"A  c #C4AD6A",
"S  c #C7AB65",
"D  c #C8B56A",
"F  c #DCBC62",
"G  c #D5B968",
"H  c #CCBB73",
"J  c #C7B477",
"K  c #D3BD73",
"L  c #D4BA7A",
"P  c #C9AE73",
"I  c #E1BE67",
"U  c #DECD4E",
"Y  c #DDC358",
"T  c #DFD04F",
"R  c #E5CB4D",
"E  c #EBCB4E",
"W  c #E7C74B",
"Q  c #F5CA49",
"!  c #E5C255",
"~  c #EAC555",
"^  c #E4CC53",
"/  c #EBC955",
"(  c #E6C45B",
")  c #ECC75C",
"_  c #E5CB5C",
"`  c #ECC85A",
"'  c #F4CB54",
"]  c #F1C55D",
"[  c #F1CC5C",
"{  c #F9CD5C",
"}  c #E7D157",
"|  c #F8D153",
" . c #E1D148",
".. c #DCC66B",
"X. c #D8C477",
"o. c #E4C264",
"O. c #ECC563",
"+. c #E5CA65",
"@. c #ECCA63",
"#. c #ECC46C",
"$. c #EDCA6B",
"%. c #E4C86B",
"&. c #F1C363",
"*. c #F1CD63",
"=. c #F4C26B",
"-. c #F2CC6B",
";. c #FAC868",
":. c #EDD264",
">. c #EBD56E",
",. c #F2D264",
"<. c #F5D36B",
"1. c #FAD868",
"2. c #E7CD75",
"3. c #E8D472",
"4. c #F7DC78",
"5. c #F0C171",
"6. c #FBE27B",
"7. c #BBBBBA",
"8. c #CCBB83",
"9. c #C8B685",
"0. c #CCBD90",
"q. c #D5BB93",
"w. c #D0BE80",
"e. c #CABEB4",
"r. c #BEC1BC",
"t. c #CEC188",
"y. c #D3C48A",
"u. c #D8C686",
"i. c #D8C795",
"p. c #D8CE92",
"a. c #E5CC89",
"s. c #F5DC84",
"d. c #E6D699",
"f. c #F2DB9D",
"g. c #E5D38D",
"h. c #FEE583",
"j. c #FDEA89",
"k. c #FBE797",
"l. c #D8C8A7",
"z. c #C7C4BA",
"x. c #D9CBB6",
"c. c #DBD6B3",
"v. c #CECDA8",
"b. c #E4D2AC",
"n. c #ECD5AC",
"m. c #E7D9A8",
"M. c #E8D8B7",
"N. c #E7D2AC",
"B. c #EEE3A8",
"V. c #FCE7A8",
"C. c #EAE4BC",
"Z. c #F7E7BB",
"A. c #FFF3BE",
"S. c #BEBEC0",
"D. c #C4C4C3",
"F. c #CCCCCC",
"G. c #C9C8C8",
"H. c #D1CECE",
"J. c #D8CEC2",
"K. c #CED2CC",
"L. c #D3D4CC",
"P. c #DCD5CB",
"I. c #D8D8C6",
"U. c #CDCED2",
"Y. c #C9C9D6",
"T. c #D1CDD4",
"R. c #D7CEDB",
"E. c #CFD3D9",
"W. c #D4D4D3",
"Q. c #DAD6D5",
"!. c #D6D9D4",
"~. c #DADAD5",
"^. c #D5D4DA",
"/. c #DAD6DB",
"(. c #DCDCDC",
"). c #D6DADB",
"_. c #EADCCC",
"`. c #E4D9C7",
"'. c #E3DCD4",
"]. c #E3DDDD",
"[. c #EADAD4",
"{. c #ECD2C2",
"}. c #DBE0CD",
"|. c #DEE2D5",
" X c #DEE1DB",
".X c #D6E0D5",
"XX c #EBE2CD",
"oX c #EAE1C4",
"OX c #F6EDCB",
"+X c #F9ECCC",
"@X c #F6E7C6",
"#X c #FEF5CD",
"$X c #FDFACA",
"%X c #E4E4D3",
"&X c #E2E3DC",
"*X c #EBE5DC",
"=X c #EBEBDC",
"-X c #E7E7D6",
";X c #F4E4D3",
":X c #F3EBDB",
">X c #F9ECDC",
",X c #F6E9D6",
"<X c #EEF3DD",
"1X c #FDF5DA",
"2X c #F9F5D8",
"3X c #D6CDE1",
"4X c #DDDCE3",
"5X c #DAD8E6",
"6X c #D9D4F1",
"7X c #E1DFE3",
"8X c #E7DDE6",
"9X c #EADBFC",
"0X c #F1DBE8",
"qX c #DEE2E3",
"wX c #E4E4E4",
"eX c #EAE5E3",
"rX c #E6E9E4",
"tX c #EBEBE5",
"yX c #E5E4EB",
"uX c #E9E6EB",
"iX c #E5E9EB",
"pX c #ECEBEB",
"aX c #F3EDE3",
"sX c #F3EDED",
"dX c #FAEDEA",
"fX c #FAE7E6",
"gX c #EEF1EB",
"hX c #EDF3E4",
"jX c #F2F3E6",
"kX c #FEF2E5",
"lX c #F3F2ED",
"zX c #FFFBEB",
"xX c #F9F8EA",
"cX c #E5E4F1",
"vX c #E9E5F5",
"bX c #ECECF2",
"nX c #EDEBF9",
"mX c #E7E7F6",
"MX c #F1EEF3",
"NX c #F2ECFB",
"BX c #F8EDF5",
"VX c #EEF3F5",
"CX c #F4F4F4",
"ZX c #FAF5F4",
"AX c #F7F9F4",
"SX c #FCFCF4",
"DX c #F5F4FB",
"FX c #FBF6FE",
"GX c #FDFDFD",
"HX c #F5F8FA",
/* pixels */
"CX4XpXiX(.lX(.&XlXW.lX!.eXgXL.lXx.tXgX3XFX6X9XcXQ.SXx.<X>Xx.ZXQ.FXfX[.SXJ.zXI.&XGXY.DX6X8XHXF.GX~.%XtX~.lX(.pXMX(.pX5XuX",
"U.AX X(.SXF.CXpX!.pX&XSX!.tXAXL.SX&X(.HXR.GX3XBX:Xc.$XC.C.#XM.,Xx.x.N.q.OXc.2X%XL.HX3XNXmXR.GXG.AX&X~.AX!.CXuX^.FXT.GX7X",
"GXQ.wXbXL.GX(.~.CX~.MXF.CXwXF.GX(. XbXuXuX].<XM.@Xd.f.X.D X.S L u.a.A : 2 : t.B.+XoXtXeXiXyX(.DXL.rXgX~.CXQ.8XZXR.GXT.rX",
"(.wXpX(.pXwXwXpXwXrXwXpX(.tXpX(.rXiX(.tXjXM.+XZ.K ..q q w @ t 0 r @ ( p Y 1 : 5 t.b.2XXX*XlX).iXtXqXwXiX7XuXrX7XpX(.sXwX",
"Q.AXQ.wXAXW.AXwX(.DXW.AXiX^.GX^.VXqXrX=Xc.$Xd.G q w M N / Q Q Q Q = - * n ] z h f A y.OXoX|.GX^.iXbXE.GXH.SX(.wXsXQ.sXwX",
"GXD.AXiXF.GXU.4XHXF.GXG.pXAXS.GXY.HXhXv.$Xg.1 9 O.N { { ' | Q Q ; Q - Q = y V O q f < J $X,XP.GX5X4XGXG.GXU.eXCX^.SXF.pX",
"F.GXW.].GXD.GXuX^.DX^.GX4X7XGXF.HX!.I.$Xg.3 +.@.&.;.C C C m ' Q m | ;.C C O C z 9 . 2 D 9.C.kXz.CXcXW.GXF.SXwXW.ZXL.GXwX",
"lX~.pXiX(.CX4X7XMXW.DX^.yXCXU.AX XtXOXp.1 +.Y / C &.C =.=.&.~ ~ ' ] N ;.C ;.7 C N p v 1 J m.c.kX(.qXMX^.DX).pXaX~.tX~.wX",
"&XtX~.pXiX(.DX7XyXuXuXyXwXrXwX(.*X,XM.5 ..:.n ' ] &.=.5.#.#.o._ ` +.O.#.=.=.V & N m 0 1 f 4 n.;X].pX7X8X].pX&XtX].ZX).pX",
" XAX&X(.DX(.yXwX7XDXT.HX^.AX&X*X;XM.9.2.+.^ ' / ] &.=.#.#.%._ _ Y +.@.o.#.-.I n & d o 9 > 4 L n.kX(.wXGXH.&XsX~.SX7.GX].",
"pXK.pXAXG.GX^.pXbXY.GXW.gXtX|.=X@Xq.S s.+.^ | W ' ] ) +._ ^ ^ T U ^ _ _ ( ` [ ' & n a z h G P n._.eXeXD.GX(.(.AXF.GXS.pX",
"(.pX&XW.GXD.GX4X(.GXz.GX%X!.jX%Xn.S a.>.` ~ E / / ~ ) ` ^ T  . . .T } W W R E E d $ V y h f f L @X:X`.SXz.lX].].HXG.GX7X",
"tXtXwXpX^.GXF.bXpXW.SX~.&X=X}.$Xu.I s.O.` ^ / ' / ` ` / ^ R  . .R ^ E R W R E W / % x w 7 . e > l.;X<XP.aXeXwXuX7XDX4XbX",
"tX~.wXlX).wXbX4XiX(.gX|.=X-X}.C.h 4.@.) ! / [ / ` ` ` ` / / E E ` ) / E E E E R 1.i p ( 9 l p f 6 `.XX_.*XlXuXbX4XcXqXcX",
"~.lXqXW.GXW.bXwX].AXL.=XhX}.<Xp...1.~ [ ~ ` *.) O.O.O.O.&.] ] ] =.#.&.] ' / / _ ) o.w v p i * p J M.XX>X`.rX].4XDXyXDXqX",
"lX!.AXtXW.GXT.pXpX(.lXL.hX:Xc.6 4.W ,.W [ ] ( O.#.O.O.O.&.&.] &.=.=.&.] / E / ` o.>.p 9 o.+ + 8 < 0.#Xl.SXP.uXNX5XcX5XmX",
").gX(.wXCXL.DXcX(.GXJ.ZXwXXXp...6.[ / / [ ) ` @.) ) ) ) ] ) ) ) ] ] ` ] / / / ` ( ! @.0 l s 0 8 S A d.#XP.HX).qXDXqXNXvX",
"rX).iXCXH.FX5XnXyX/.sX].].xX6 3.1.[ ~ ~ ` ~ ` ) ` ) ` ` ) ` ` ` ` ~ / / / / / _ :.) ` 0 t B b c G Z f.m.:XrXcXbXE.HX3XcX",
" XgX4XwXaX~.nX8XiXwX].eX0X@XD 4.<.) ) ` ) ` ` ` ` ` ` ` ) [ ` ` ` / / / ~ ~ ` / ` ) ( z t c g q e f H Z.-XpXqXcXHX).DXcX",
" XVXwX(.SXF.DX7X7XpXQ.dXeXb...6.@.~ ~ [ ` ~ ` ) ` ` ` ` ) ` ` / ` / ~ ` / ' ` ` ~ +.( ( t l e e f S 5 A.[.MXqXqXqXcXcXcX",
"VXG.bXHX7.GXW.nXCXD.SXJ.>Xb.k j._ ~ ) ` ` ` ` ` ` ` ~ ) ` / ) / ~ / ~ ~ / / _ ` :.*.( O.w x v c G S 2.i.zXT.HXiX5XHXE.mX",
"!.HXqXU.GXH.pXuX).GXz.SX_.0.s.>.( ~ ) ) ` ~ ~ ` ) ` ` [ ` ) ) ` [ / / ' / / ` ` @.@.+.@.l l B h h K 2 m.XXlXwXbXHXY.GXqX",
"VXF.bXVXF.CXuX&XtXQ.SXP.+X6 j.:.` / ~ ` ` ` ` ` ` ` ) ` ` ` ` ` ~ ` / ` ` ` _ ` ~ ` @.-.v w v e e f D 0.kX&XpXqX^.GXE.nX",
"rXiXiX4XpXpX~.rXwXwXtX,Xb.t.6.:._ ` ` ~ ` ) ` ` ` ` / ) ` ` ) ` ` / ) / ` ~ ` ` @.` -.@.Y t $.c F G K w.,XtXiXpXiX4XnXcX",
"K.gX4X4XbX(.lXrX XpX].>Xb.H j.^ ) ` ) / ~ [ ) ` ) / ` ` ) ` ) / / ` / ) ' ` ` ` ` ~ *.@.o.g I v F G K 8._.lXwXwXCXwXDXcX",
"GXD.CXHX/.GXG.=XtXW.SX`.m.X.6.^ / ` ` ) ) ` ` ` ` ) ` ` ` ` ) ` ` ` ) / ` ` ` ` @.@.-.%.B r I l g g f 8.1XP.SXpX^.HXY.nX",
"r.GX).5XDXD.SX|.(.lXQ.kXy...h._ ` ) ` ` ` ` ) ` ` ) ` ) ) [ ` ` ` ` ` ` ` ` ) ` +.) -.@.o.l I B g c G J x.SX&XwXHXW.GXyX",
"AXK.bXyX5XHXI.=XtX/.BX_.p.%.4.` ` ` ` ` ) ` ` / ` ` [ ~ ) / ) ` ` ` ` ` ` ` ` ` ) @.*.$.#.l o.I I I G w.+X*XaXwXqXCX4XvX",
"gXwX4XnXcXiX=X XtX(.NX[.u.3.4.` ` ~ ) ) ` ) ` ) ` ` ) ` ~ ` ` ` ) / ) ` @.` ` ) *.) *.-.o.t F c w l f J oX[.aXtXqXbX4XvX",
"z.SXyX^.nXE.hX-X(.DXR.kXy.%.h.( ) ` ` ` ` ` ` ` ) ` ` ` ` ` ) ` ` ` [ ) ` ` ` ) @.+.$.$.o.w F F e l G 5 l.SX&XwXAXU.GXcX",
"GXK.yXDX5XHXI.|.pX5XBX[.g.3.4.) ) ` ` ` ~ ` ) ` ` ` ) ~ ` ` ` ` ` ` ) / ` [ ` +.@.( @.-.O.g I o.O.o.b X.1XP.xXrXW.GXW.vX",
"L.tXiXqXnXqXhX<X4XDX/.kXi...j.! ) ` ` ` ) [ ` / ) ` [ / ) ` ) ` ) ` ` ` ` ) ` ` @.) @.$.O.w v c 9 t b A x.sXeX].lXqXDXmX",
"hX XsXiXT.GXG.hXpX^.ZX_.i.a.s.) ` ) ) ) ) ) ) ) ) ) ) ) ) ) ) ` @.) ` ` / ` ` ` [ ) ] 1.B 0 z t # @ j 2 ;X4XDXrX%X&XyXcX",
"-XtX).bXwX).AX&XwXpX8X>Xq.a.h.~ O.) ) ) ) ) ) ) ) ) ) ) ) ) ) ) ) ) ` [ ` ~ / ) ) ~ ) <.B t B B n x l D _.8XyX(.-X<XyX9X",
"&XeXpXW.AX4X XrX&XbX'.kXq.a.h.~ ` ` @.) ) ) ) ) ) ) ] ) ) ) ) ) ) ) ` ` ` ` ' ` ) ~ ) *.M r B p i a q L `.BX8XpXhXI.DXcX",
"tX(.wXFXG.HX~.=XgXD.GXJ.b.a.4.:.` ) ) ) ) ) @.) ) @.) ` ) ) ) @.) ) ` ` ` ` ~ / ` ~ ) @.t 9 p 0 o   j , ;X].NXwXI.SXG.NX",
"~.AX(./.GXG.SX X~.GXF.zXb.L k.:.` ) ) ) ) ) ) ) ) ) ) ) ) ) ] ` ) ) ` ` ` [ ~ ` ~ ) ) ) p y B t r p 8 u.`.BX(.rXjXz.GX4X",
"lXL.AXMXH.GXL.tXtX!.ZX`.@XJ j.,.) ` ) ) ) ) ) ) ) ) ) *.) ) ) ) ) ) ` ` ` ~ ` ` ` ` O.) p y B r n t G L kXeXpXrX.XxX).cX",
" XCX].uXpX(.=X&X&X XtX%XoXJ s.>.` +.) @.) ) ) ) ) ) ) ` ) ) ) ) ) ) ) ` / ~ [ / ` ] ) ( 0 r l o o . f 8.;XeX&X=X|.|.rXiX",
"~.wXwX(.DXL.SX|. XgX~.kXoX9.j.4.` ] ) ) ) ) ) ) ) ) ) ) ) ) ) ) ) ) ` ` ) / ~ ` ` ` ) V 0 r l # # 0 , b.;XdX~.rX<XqXrXiX",
"GXQ.MXwXQ.AXL.tXgXW.HX'.OXd.X.j.+.] ` ` ~ ) &.) ` ) ) ] ) ) ) ) ) ) ` ` / ) ` / / ~ *.a 0 s z p i b J b.zXP.pXtX~.tX).wX",
"r.AXwX^.AXL.xX&X!.GXD.ZX,X0.d.3.@.! [ @.~ @.) ) ) ) ) ) ) ) ) ) ) ) ) ` ] / ` ` ,.*.*.a 0 p 9 9 p > P xXe.SXL.&XAXL.GX&X",
"GXF.uXsXW.GXL.hXgXE.HXW.<XC.5 k.<.x *.] ( *.! ) ) ) ) ) ) ) ) ) ` ] ) ` / / [ ~ ! ` ! # 0 p 7 @   2 0.x.SX~.pXrXW.SXK.tX",
"W.VX7XwXsX!.jX XqXiXqXcX-X$Xt.g.6.! ] ) ! *.~ ) ` ) @.) ) ) ] ) ) ` ` ) / ` ~ / ! [ M # x V p g b , M.fX'.aX&X&XpX(.aX&X",
"W.gXwXwXsX~.hX~.qXbX5XnX'.,Xm.X.j.] ` ) ~ ,.) ) @.) ) ) ) ) ) ) ) ) ` ` / ) / ) ) ,.a # p p 0 e j 5 ,XfX~.rX XiXbX5XtX-X",
"GXF.iXbXL.GXL.lXbXE.DX6X&X>Xc.D 4.1.~ ( @.] @.~ ) ) ) ) ) ) ) ) ) ) ` ` ` / ) / ) ~ $ # r # 7 7 X u.[.Q.GXL.gXgX^.GXL.=X",
"r.CXwX/.SXW.lX X4XHXY.DXeXI.$XX.%.6.~ ! *.~ [ ) ) ) ) ] ` +.` ` ) ) ` ` ] / ` ~ [ ! $ a M r p g k p.[.FXG.AXW.qXDXT.GX%X",
"GXQ.MXwX!.AXL.gXgXY.GXE.sXAXl.$XG h.) ( ,.M *.) ] ) @.) ~ ` ` / ` ) / ` / ` / ) ( i O x x 9 t g H OXdXT.GXW.CXpX5XbX~.*X",
"W.iX(.iXCXF.SX(.(.HX^.bXpXW.xXoXX.3.<._ ^ [ [ ' ] &.&.&.) / R E ' / / ~ / ` ` ) ! # s #   # O > N.0XQ.BX(.CX).tXiXwXpX].",
"wXpXwXwXwXpX).iXwXwXpXwXpXwXwXXXm.2 k.%.` / ' N &.&.&.&.O.` / E / ~ / [ [ ~ ~ *.0 # p t t y 9 I XX].rXpX7XwXpXwXwXwX(.CX",
"pX(.wXCXH.HX].wXpX/.AX(.wXpX].*X+Xw.L j.Y _ M ,.] &.&.&.O.@.) _ ~ ) ) @.) O.) ! % s x l c G L n.[.uXpXW.AX(.4XwX(.AX!.iX",
"(.HX].Q.GXU.AXwX(.GXG.GX).rXpX].,XC.9.u.s.o.~ ' ] ) &.&.O.O.O.` ) @.O.B O.-.V & = i # . , 4 q.{.*XrXQ.GXU.lXwXwXDXD.GXQ.",
"pXQ.pXDXG.HXQ.wXpXF.GXF.MXrX7XrX'.:XC.t.X.h.Y W / / ) O.O.O.@.o.@.( ) O.-.&.a % U +   q 4 P {.fXeXwXbXF.HX).wXwXW.GXS.CX",
"(.MXrXQ.GXW.pXwX7XCX).lXwX7XpXwX8XaXoXB.D .._ } / / / ) ) ) O.` / ! ) <.-.p & * U $ u k J M.dXeXrXwX(.AXQ.pXrXwXpXQ.CXwX",
"pX(.rXwXwXwXAXwXwXuXwXeXwXwXwXwXpXeXC.C.B.3 3.} ^ ^ ^ / ` ` / / ^ ^ / / W & & d % @ Y 5 i.,X=X(.7XuXwX].pXrX].iXwXwXpX(.",
"AXwXpXwX).GXU.pXpXW.AX).wXCX!.pXW.tX-XC.A.d.2 k +.+._ _ ` ` / / ^ } } i $ i r @ q X 2 y.OX=XK.AXwX~.MX).CX).sX7XwXwX(.pX",
"W.bX(.~.GXD.GX(.(.HXF.CXiXQ.HXQ.DXpXL.1Xc.$Xp.H H k ..+.+.:.) _ :.Y i i s p j f 4 a.l.+X>X!.hX.XtXCXW.SXT.AX/.wXpXwXpXrX",
"pX/.AXpXG.GX7.CXCXD.GXW.(.GXW.iX(.U.SX!.kXI.#XZ.9.6 D Z f g u l q q u j j g D L n.e.ZX[. XHXK.hXwXW.DXU.HXW.HXwXwX(.rXwX",
").CX(.4XCXF.SX(.(.AXW.pXpXQ.ZX).iXiXiXVX/.sX].*X>XM.n.p.w.L G K K K Z 2 , S i.@X[.FX3XNXnXE.SX~.wXpXQ.HXW.AX(.pXuX].uXrX",
"(.qXpXQ.AX/.AXwXwXpX(.MX(.wXpX4XnXcX3XnX3XFX8XwXfX;X+X@XV.V.k.k.f.f.k.V.V.Z.@X;X0X9X9X9XmXqXqX].tXpXwXpX XwXwX(.pXwXpXuX"
};
