/* XPM */
static char *_b2176209f134dbaeda1100e92679a0fNOrM03QUtKaQwUvs[] = {
/* columns rows colors chars-per-pixel */
"64 64 160 2 ",
"   c None",
".  c #AD8B03",
"X  c #AD8C08",
"o  c #B18E02",
"O  c #B59202",
"+  c #BA9602",
"@  c #BF9901",
"#  c #B5930C",
"$  c #B9960C",
"%  c #BE9A0A",
"&  c #B99711",
"*  c #BF9C12",
"=  c #C49D01",
"-  c #C39F0C",
";  c #C7A000",
":  c #CCA300",
">  c #C7A10C",
",  c #CAA50E",
"<  c #D1A700",
"1  c #D4AA00",
"2  c #D9AE04",
"3  c #D6AE0B",
"4  c #D8AF0B",
"5  c #DBB107",
"6  c #DCB30B",
"7  c #C5A116",
"8  c #CAA511",
"9  c #CDA813",
"0  c #CBA718",
"q  c #CCA819",
"w  c #D3AD16",
"e  c #D3AE19",
"r  c #D7B015",
"t  c #DBB313",
"y  c #D6B11B",
"u  c #DCB61C",
"i  c #DEB81E",
"p  c #E0B60C",
"a  c #E3B90F",
"s  c #E6BC12",
"d  c #E9BE14",
"f  c #E3BB1D",
"g  c #E9BF18",
"h  c #DAB522",
"j  c #D8B62A",
"k  c #DBB82A",
"l  c #DDBC34",
"z  c #DEBD39",
"x  c #E2BC22",
"c  c #E2BE2B",
"v  c #E1BE33",
"b  c #EBC117",
"n  c #EDC219",
"m  c #F1C61C",
"M  c #F2C81E",
"N  c #ECC322",
"B  c #E4C02D",
"V  c #EBC52A",
"C  c #EFC82D",
"Z  c #F0C724",
"A  c #F5CB23",
"S  c #F9CE24",
"D  c #F4CC2A",
"F  c #F8CE28",
"G  c #FDD127",
"H  c #FFD42A",
"J  c #E7C332",
"K  c #E9C535",
"L  c #E9C73B",
"P  c #EDCA3F",
"I  c #F3CD37",
"U  c #F1CD3C",
"Y  c #F7D036",
"T  c #FFD634",
"R  c #FFD73A",
"E  c #FFD83D",
"W  c #D5BE63",
"Q  c #EECC45",
"!  c #EFCE48",
"~  c #F7D240",
"^  c #FFD944",
"/  c #F4D34E",
"(  c #FFDB4C",
")  c #E1C552",
"_  c #E4C95C",
"`  c #F4D351",
"'  c #FCDA53",
"]  c #FEDB50",
"[  c #FFDC50",
"{  c #FFDC51",
"}  c #FFDC52",
"|  c #FFDD53",
" . c #FFDC53",
".. c #F9D956",
"X. c #FAD956",
"o. c #FDDB54",
"O. c #FFDD54",
"+. c #FFDD55",
"@. c #FFDD56",
"#. c #FBDA53",
"$. c #FFDD59",
"%. c #E5CB64",
"&. c #E7CF6C",
"*. c #E8D277",
"=. c #EBD67F",
"-. c #FBDF72",
";. c #FFE066",
":. c #FFE065",
">. c #FFE169",
",. c #FFE373",
"<. c #FFE475",
"1. c #FFE47B",
"2. c #FBE17E",
"3. c #FFE479",
"4. c #EBD685",
"5. c #ECD98F",
"6. c #EDDC94",
"7. c #EFDE9C",
"8. c #FFE685",
"9. c #FFE88F",
"0. c #FCE690",
"q. c #FFEA97",
"w. c #FFE994",
"e. c #FFEB9C",
"r. c #FFEB9E",
"t. c #F0E2A7",
"y. c #FFEDA6",
"u. c #F1E3AB",
"i. c #FFEDA8",
"p. c #FFEFB0",
"a. c #F3E8BB",
"s. c #F8ECB9",
"d. c #FFF0B6",
"f. c #FFF1BC",
"g. c #F1E8C2",
"h. c #F6ECC7",
"j. c #F1E9CD",
"k. c #FFF4C5",
"l. c #FFF5CD",
"z. c #FFF5CC",
"x. c #F7EFD0",
"c. c #FFF7D5",
"v. c #FFF7D6",
"b. c #FCF5DA",
"n. c #FAF7E7",
"m. c #FFF9E5",
"M. c #FFFAE4",
"N. c #FFF9E1",
"B. c #FAF7EA",
"V. c #FBF8E9",
"C. c #FCF9EE",
"Z. c #FEFAEA",
"A. c #FBF9F1",
"S. c #FDFAF0",
"D. c #FFFDF3",
"F. c #FDFBF4",
"G. c #FFFEF9",
"H. c #FFFFFE",
"J. c white",
"K. c #FFFFFF",
/* pixels */
"                                                    +.+.@.@.@.@.| @.@.@.@.@.                                                    ",
"                                            +.+.+.+.+.$.@.@.@.@.@.@.@.@.@.@.@.@.+.+.                                            ",
"                                      +.+.+.+.+.+.| ( ( ^ ^ ^ ^ ^ ^ ^ ^ ( | | @.+.+.+.+.+.                                      ",
"                                  +.+.+.$.| ( ^ R T T H H H H H H H H H H H T R ^ ( | | +.+.+.                                  ",
"                              +.+.+.+.( ^ T H H H H H H H H H H H H H H H H H H H H R ^ ( | O.O.+.                              ",
"                            +.+.| ( R H H H H H H H H H H H H H H H H H H H H H H H H H H R ( O.+.+.                            ",
"                        +.+.+.( T H H H H H H H H H H H H H H H H H H H H H H H H H H H H H H R ( @.@.+.                        ",
"                      +.+.( E H H H H H H H H H H H H H H H H H H H H H H H H H H H H H H H H H H E | +.+.                      ",
"                    +.+.^ T H H H H H H H H H H H H G F A Z N N M Z A F H H H H H H H H H H H H H H T ( +.+.                    ",
"                  +.+.E H H H H H H H H H H H G Z f 9 - # O O . . o O O > 9 f A H H H H H H H H H H H H E +.+.                  ",
"                +.| R H H H H H H H H H H A u - o . o O @ = = = ; ; @ @ O o o O 8 b F H H H H H H H H H H R | +.                ",
"              +.| T H H H H H H H H H S r $ . O = ; < 1 1 1 1 1 1 1 1 1 1 < : @ o o % i H H H H H H H H H H T ( +.              ",
"            +.| T H H H H H H H H G f $ . + : 1 1 1 1 1 1 1 1 1 1 1 1 1 1 1 1 1 < : @ o - n H H H H H H H H H T | +.            ",
"          +.| T H H H H H H H H A 8 . + : 1 1 1 1 1 1 1 1 1 1 1 1 1 1 1 1 1 1 1 1 1 1 : @ X r F H H H H H H H H T | +.          ",
"          +.R H H H H :.f.q.( N % o ; 1 1 1 1 1 1 1 1 1 1 1 1 1 1 < 1 1 1 1 1 1 1 1 1 1 1 ; O , A H H H H H H H H E +.          ",
"        +.^ H H H H H ,.J.J.M.W + < 1 1 1 1 1 1 1 1 1 1 2 t u k c c k i t 2 1 1 1 1 1 1 1 1 : + > A H H H H H H H H ^ +.        ",
"      +.( H H H H H G T e.G.J.A.) 1 1 1 1 1 1 1 1 3 u L ` ....| ( ( #.O.../ P u 1 1 1 1 1 1 1 1 @ > A H H H H H H H H ( $.      ",
"      +.R H H H H ( $.H D W g.C.4.1 1 1 1 1 1 1 u ! ( ^ T H H H H H H H H T ^ +.Q u 1 1 1 1 1 1 1 @ 8 G H H H H H H H T +.      ",
"    +.^ H H H H >.M.D.2.> + 3 k r 1 1 1 1 1 2 K ..E H G H H H H H H H H H H H H E #.B 1 1 1 1 1 1 1 @ r H H H H H H H H ^ +.    ",
"    | T H H H ^ v.J.J.j.* < 1 1 1 1 1 1 1 3 Q ^ H H H H H H H H H H H H H H H H H H ( K 1 1 1 1 1 1 < + N H H H H H H H T |     ",
"    ^ H H H G 3.J.J.J.B.j 1 1 1 1 1 1 1 3 P E G H H H H H H H H H H H H H H H H H H H ^ B 1 1 1 1 1 1 : , G H H H H H H H ^     ",
"  | T H H H H p.J.J.J.C.l 1 1 1 1 1 1 1 J R H H H H H H H H N x u h N G H H H H H H H H U t 1 1 1 1 1 1 = i H H H H H H H T |   ",
"  ( H H H H T z.J.J.J.V.j 1 1 1 1 1 1 u ~ H H H H H H G h $ . o O O O $ y A H H H H H H T B 1 1 1 1 1 1 1 , G H H H H H H H (   ",
"  R H H H H R c.J.J.J.x.r 1 1 1 1 1 2 I H H H H H H H 7 . = 1 1 1 1 1 1 ; 9 F H H H H H H Y 3 1 1 1 1 1 1 ; N H H H H H H H E   ",
"( T H H H H T z.J.J.J.6.1 1 1 1 1 1 t R H H H H H H 7 . 1 1 1 1 1 1 1 1 1 < t H H H H H H H t 1 1 1 1 1 1 < t H H H H H H H T ( ",
"^ T H H H H H y.J.J.V.z < 1 1 1 1 1 B H H H H H H x o 1 1 1 1 1 1 1 1 1 1 1 1 M H H G C k q ; 1 1 1 1 1 1 < 3 F H H H H H H H ^ ",
"E H H H H H H +.b.n.&.1 1 1 1 1 1 3 D H H H H H H * ; 1 1 1 1 1 1 1 1 1 1 1 1 t u 7 $ X O O : 1 1 1 1 1 1 1 < D H H H H H H H ^ ",
"T H H H H H H H v j 1 1 1 1 1 1 1 3 H H H H H H Z + 1 1 1 1 1 1 1 1 1 1 1 1 1 1 O @ ; < 1 1 1 1 1 1 1 1 1 1 < n H H H H H H H T ",
"T H H H H H H H 3 1 1 1 1 1 1 1 1 t H H H H H H x @ 1 1 1 1 1 1 1 1 1 1 1 1 1 1 1 1 1 1 1 1 1 1 1 1 1 1 1 1 1 b H H H H H H H T ",
"H H H H H H H G 3 1 1 1 1 1 1 1 1 s H H H H G H y ; 1 1 1 1 1 1 1 1 1 1 1 1 1 1 1 1 1 1 1 1 1 1 1 1 1 1 1 1 1 s H H H H H H H H ",
"H H H H H H H G 3 1 1 1 1 1 1 1 < s H H H H H T y : 1 1 1 1 1 1 1 1 1 1 1 1 1 1 1 1 1 1 1 1 1 1 1 1 1 1 1 1 1 s H H H H H H H H ",
"H H H H H H H G 4 1 1 1 1 1 1 1 1 s H H H H H H w : 1 1 1 1 1 1 1 1 1 1 1 1 1 1 1 1 1 1 1 1 1 1 1 1 1 1 1 1 1 s H H H H H H H H ",
"H H H H H H H H 6 1 1 1 1 1 1 1 1 b H H H H H H r : 1 1 1 1 1 1 1 1 1 1 1 1 1 1 1 1 1 1 1 1 1 1 1 1 1 1 1 1 1 a H H H H H H H H ",
"H H H H H H H H a 1 1 1 1 1 1 1 1 s H H H H H H u < 1 1 1 1 1 1 1 1 1 1 1 1 1 1 1 1 1 1 1 1 1 1 1 1 1 1 1 1 1 a H H H H H H H G ",
"H H H H H H H H s 1 1 1 1 1 1 1 1 t H H H H H H x < 1 1 1 1 1 1 1 1 1 1 1 1 1 1 1 1 1 1 1 1 1 1 1 1 1 1 1 1 1 s H H H H H H H G ",
"G H H H H H H H b 1 1 1 1 1 1 1 1 p H H H H H H V 1 1 1 1 1 1 1 1 1 1 1 1 1 1 3 t 4 1 1 1 1 1 1 1 1 1 1 1 1 1 b H H H H H H H G ",
"M H H H H H H H M 1 1 1 1 1 1 1 1 6 G H H H H H Y 3 1 1 1 1 1 1 1 1 1 1 1 1 1 f ' ` P k 3 1 1 1 1 1 1 1 1 1 1 M H H H H H H H A ",
"M H H H H H H H A 2 1 1 1 1 1 1 1 1 A H H H H H H N 1 1 1 1 1 1 1 1 1 1 1 1 1 C H T ^ ( ..! t 1 1 1 1 1 1 2 t A H H H H H H H M ",
"b H H H H H H H H 6 1 1 1 1 1 1 1 1 b H H H H H H Y 3 1 1 1 1 1 1 1 1 1 1 1 u T H H H H T R u 1 1 1 1 1 r 6.s.E H H H H H H H b ",
"a G H H H H H H H n 1 1 1 1 1 1 1 1 6 H H H H H H T L 1 1 1 1 1 1 1 1 1 1 2 P T H H H H H Z + 1 1 1 1 1 _ J.J.:.G H H H H H G a ",
"  M H H H H H H H G 2 1 1 1 1 1 1 1 1 Z H H H H H H ^ L 2 1 1 1 1 1 1 1 3 Q R G H H H H H e @ 1 1 1 1 1 7.J.G.:.H H H H H H M   ",
"  n H H H H H H H H s 1 1 1 1 1 1 1 1 6 H H H H H H H ^ / k r 3 1 3 t k / E H H H H H H A # : 1 1 1 1 1 u.J.b.^ H H H H H H b   ",
"  a G H H H H H H H A 2 1 1 1 1 1 1 1 1 f H H H H H H H T ( O.` ` ` O.( T H H H H H H H 0 @ 1 1 1 1 1 1 &.Z.8.H H H H H H G p   ",
"    n H H H H H H H H b 1 1 1 1 1 1 1 1 < b H H H H H H H H H T T T H H H H H H H H H i X : 1 1 1 1 1 1 n ^ H H H H H H H M     ",
"    a H H H H H H H H H 6 1 1 1 1 1 1 1 1 : f H H H H H H H H H H H H H H H H H H H N X ; < 1 1 3 l _ 4.0.,.R H H H H H G a     ",
"    1 m H H H H H H H H A 5 1 1 1 1 1 1 1 1 : w F H H H H H H H H H H H H H H H H h X ; 1 < r %.a.C.G.J.J.J.k.E H H H H m 1     ",
"      p H H H H H H H H H M 2 1 1 1 1 1 1 1 1 : > u F H H H H H H H H H H H H N * . ; 1 1 ) h.J.J.J.J.J.J.J.J.<.H H H G p       ",
"      1 b H H H H H H H H H n 2 1 1 1 1 1 1 1 1 : = % 9 x C G G G H F D N y & X @ < 1 r 6.F.J.J.J.J.J.J.J.J.J.<.G H H n 1       ",
"        5 A H H H H H H H H H m 5 1 1 1 1 1 1 1 1 1 1 = @ O # $ $ $ # X . o = < 1 1 r u.J.J.J.J.J.J.J.J.J.J.Z.| H H A 2         ",
"          p G H H H H H H H H H M p 1 1 1 1 1 1 1 1 1 1 1 1 : : ; : : < 1 1 1 1 1 3 u.J.J.J.J.J.J.J.J.J.J.J.e.H G G p           ",
"          1 s H H H H H H H H H H G b 5 1 1 1 1 1 1 1 1 1 1 1 1 1 1 1 1 1 1 1 1 1 *.J.J.J.J.J.J.J.J.J.J.J.k.E H H s 1           ",
"            1 b H H H H H H H H H H H M s 1 1 1 1 1 1 1 1 1 1 1 1 1 1 1 1 1 1 1 h b.J.J.J.J.J.J.J.J.J.J.z.( H H b 1             ",
"              1 b H H H H H H H H H H H H M s 5 1 1 1 1 1 1 1 1 1 1 1 1 1 1 1 1 _ J.J.J.J.J.J.J.J.J.G.d.^ H H n 1               ",
"                1 b G H H H H H H H H H H H H G m d 6 2 1 1 1 1 1 1 1 2 2 6 s m -.J.J.J.J.J.J.J.J.N.8.T H H b 1                 ",
"                  1 b G H H H H H H H H H H H H H H G F A M n n b n m A F G H H ^ z.J.J.J.J.G.v.w.^ H H G s 1                   ",
"                    1 6 G H H H H H H H H H H H H H H H H H H H H H H H H H H H G ^ 8.y.y.w.:.R H H H A p 1                     ",
"                      1 5 m H H H H H H H H H H H H H H H H H H H H H H H H H H H H H H H H G H H G m 5 1                       ",
"                        1 1 a A H H H H H H H H H H H H H H H H H H H H H H H H H H H H H H H H A s 1 1                         ",
"                            1 2 d S H H H H H H H H H H H H H H H H H H H H H H H H H H H H G s 2 1                             ",
"                              1 1 2 s A G H H H H H H H H H H H H H H H H H H H H H H G M a 5 1 1                               ",
"                                  1 1 1 6 b A G H H H H H H H H H H H H H H H H G A b p 1 1 1                                   ",
"                                      1 1 1 1 6 s b M A A G H G G G G G A M b s 5 1 1 1 1                                       ",
"                                            1 1 1 1 1 2 2 5 6 6 6 6 5 5 2 1 1 1 1 1                                             ",
"                                                    1 1 1 1 1 1 1 1 1 1 1 1                                                     "
};
