/* XPM */
static char *_b2ef2a19a40416a94d9cd2d3af91d2ebGTpHMV1Q6gZwYS5[] = {
/* columns rows colors chars-per-pixel */
"60 60 181 2 ",
"   c #745E49",
".  c #7C5F5B",
"X  c #6C684B",
"o  c #76644C",
"O  c #7A654D",
"+  c #736A4D",
"@  c #7E6A4F",
"#  c #766556",
"$  c #7B6654",
"%  c #756B54",
"&  c #7C6952",
"*  c #76615A",
"=  c #796659",
"-  c #7C695A",
";  c #7C6261",
":  c #9D7739",
">  c #9D7B3D",
",  c #A57D3D",
"<  c #82654B",
"1  c #896D4D",
"2  c #8C6A45",
"3  c #9C7C44",
"4  c #9D7C4A",
"5  c #98734B",
"6  c #816454",
"7  c #836A55",
"8  c #896E50",
"9  c #816A5C",
"0  c #916E53",
"q  c #8A7055",
"w  c #A17D43",
"e  c #AF853D",
"r  c #B7873E",
"t  c #BB8E3E",
"y  c #B58135",
"u  c #E7A11D",
"i  c #DF9F24",
"p  c #D29634",
"a  c #E09F29",
"s  c #DEA12C",
"d  c #DCA231",
"f  c #D9A538",
"g  c #E2A12B",
"h  c #F9AE2E",
"j  c #E2A633",
"k  c #EDAD34",
"l  c #ECAD3A",
"z  c #F2AB35",
"x  c #F2AE3C",
"c  c #F3B03F",
"v  c #B78641",
"b  c #B48841",
"n  c #BA8A40",
"m  c #A48254",
"M  c #D19F48",
"N  c #C9975C",
"B  c #DEA240",
"V  c #C5A052",
"C  c #D4AB59",
"Z  c #E6A644",
"A  c #EDAF4D",
"S  c #F4B44C",
"D  c #F7BE4B",
"F  c #F9B64B",
"G  c #E7B151",
"H  c #FCBD55",
"J  c #F7BC59",
"K  c #FBBF5E",
"L  c #F4B855",
"P  c #DBA866",
"I  c #D7B868",
"U  c #E7B961",
"Y  c #EDBB66",
"T  c #F7BF60",
"R  c #FCBE63",
"E  c #FEBD6A",
"W  c #FFC14F",
"Q  c #F6C154",
"!  c #FCC156",
"~  c #FCC05E",
"^  c #F4C85F",
"/  c #F5C45E",
"(  c #EDC06B",
")  c #F6C161",
"_  c #FCC061",
"`  c #F4C46A",
"'  c #FEC168",
"]  c #EFCC72",
"[  c #F2C971",
"{  c #D0BABC",
"}  c #EBCD8D",
"|  c #F5CD8A",
" . c #FACE8F",
".. c #F5D58C",
"X. c #EDD99C",
"o. c #F2D59D",
"O. c #F7D898",
"+. c #F3D191",
"@. c #C8C8BE",
"#. c #C8C4BB",
"$. c #D2C1B9",
"%. c #FACDA4",
"&. c #EED5A3",
"*. c #F6D1A5",
"=. c #F3D8A1",
"-. c #FADDA5",
";. c #F3D4AB",
":. c #FBDDAB",
">. c #F8DAB4",
",. c #FCE0B1",
"<. c #FAE4BF",
"1. c #CBBBC6",
"2. c #CFC8C0",
"3. c #D1C6C0",
"4. c #EFE4C6",
"5. c #EDE4CA",
"6. c #F0E5C7",
"7. c #F1E5C9",
"8. c #F5EACC",
"9. c #F8EDCF",
"0. c #FDE1CB",
"q. c #EDE5D0",
"w. c #E3E4DF",
"e. c #EFECDD",
"r. c #FCE6D1",
"t. c #FAEED4",
"y. c #FAE9DA",
"u. c #FCF0D6",
"i. c #F5F2DB",
"p. c #EAEBE4",
"a. c #EEEEEE",
"s. c #F6EAE6",
"d. c #FDEFE2",
"f. c #F1EEED",
"g. c #EDF1ED",
"h. c #F0F5E1",
"j. c #F8F4E2",
"k. c #F2F1EE",
"l. c #FDFAEB",
"z. c #F9F5E9",
"x. c #EDEDF2",
"c. c #EEECFA",
"v. c #F1EEF3",
"b. c #F4EDF8",
"n. c #E7F3F2",
"m. c #EDF1F4",
"M. c #EFF4F8",
"N. c #F1F1F1",
"B. c #FBF4F2",
"V. c #F4FFF5",
"C. c #FCFCF4",
"Z. c #F6F3F8",
"A. c #F5F2F9",
"S. c #FEF6FC",
"D. c #F6FCFE",
"F. c #F9F9F9",
"G. c #FBFAF8",
"H. c #FBFBFB",
"J. c gray98",
"K. c #FBFDF8",
"L. c #FAFCFB",
"P. c #FFFCFB",
"I. c #FFFFFB",
"U. c #FDFEFA",
"Y. c #FFFAFF",
"T. c #FDFAFE",
"R. c #FBFFFF",
"E. c #FBFEFD",
"W. c gray99",
"Q. c #FDFDFD",
"!. c #FFFDFC",
"~. c #FDFFFD",
"^. c #FFFFFD",
"/. c #FDFCFF",
"(. c #FEFDFF",
"). c #FCFFFF",
"_. c #FEFEFE",
"`. c #FFFEFF",
"'. c white",
"]. c #FEFFFF",
"[. c #FDFDFD",
/* pixels */
"a.a.a.m.!.!.!.!.a.a.a.a.!.!.!.!.g.a.g.a.!.!.!.!.a.f.f.f.!.!.!.!.a.s.a.a.W.W.!.!.v.v.v.f.!.R.!.!.m.a.a.a.!.!.!.!.N.a.a.a.",
"a.a.a.a.!.!.!.!.a.a.a.a.!.!.!.!.m.a.a.k.!.!.!.W.g.m.a.g.R.!.R.R.m.g.a.x.!.!.R.!.x.a.a.a.!.!.!.!.N.a.a.a.!.!.!.R.x.a.a.a.",
"a.a.a.N.!.!.!.R.a.a.a.m.!.!.!.!.c.c.a.x.W.!.!.!.g.a.p.a.W.!.L.L.k.a.a.a.R.!.!.W.k.g.a.k.!.!.!.H.a.a.a.x.!.!.!.!.N.f.m.a.",
"N.N.N.N.J.J.J.R.N.N.N.N.D.L.R.J.N.N.N.N.J.R.!.R.N.Z.b.Z.W.W.W.W.N.b.v.N.W.W.W.W.g.a.a.k.R.!.!.!.N.N.g.N.J.H.H.R.g.a.f.m.",
"R.R.H.F.N.N.N.N.R.J.H.J.N.m.N.N.C.C.K.V.k.k.N.N.G.G.J.J.N.k.a.k.J.J.J.G.N.a.a.f.!.!.!.H.N.x.a.f.J.R.H.J.N.N.N.N.R.!.R.!.",
"!.!.!.R.m.a.a.a.!.!.!.!.k.a.a.a.!.!.!.!.k.a.x.v.L.L.R.!.a.a.a.g.!.!.R.R.n.p.a.a.!.!.!.!.m.a.a.k.!.!.!.R.m.a.a.a.!.!.!.!.",
"!.!.!.!.a.a.a.a.J.!.!.!.a.a.f.N.!.!.!.!.f.f.v.N.!.!.!.!.v.v.a.m.W.!.!.!.v.v.v.v.C.C.W.W.f.a.a.a.R.!.!.!.a.a.a.N.!.!.!.!.",
"R.!.!.!.a.x.g.f.R.R.!.!.a.a.x.N.!.C.z.j.5.5.5.5.t.t.t.t.5.7.5.7.t.t.t.t.5.7.5.4.i.i.j.C.a.k.x.m.H.!.!.!.a.v.g.N.H.R.!.R.",
"x.v.k.a.!.R.R.H.x.N.N.a.R.R.!.W.N.x.;.h k k A z c z h k l x x k c l x z x l S S J _ ' 4.!.W.!.R.x.g.N.N.R.R.!.H.N.k.a.a.",
"g.a.a.x.!.!.!.H.k.a.a.x.!.!.!.R.N.g.&.g e , w > 3 > , 5 4 4 w > : e t M G J K J T _ ' 4.R.!.!.R.m.f.a.a.!.!.!.R.x.a.a.a.",
"a.a.a.g.R.!.!.!.a.a.a.a.!.!.!.!.v.k.&.d 1 . . + % % # . < < 5 m V C U ) ~ H ~ _ _ _ ' 5.!.!.!.!.a.a.a.a.!.!.!.!.N.a.a.a.",
"v.N.N.N.J.R.!.J.N.N.N.N.J.J.R.J.N.N.&.i 1 . = $ - .   w N P Y ` _ _ ~ ~ H K R R _ _ R 8.L.R.W.L.N.N.N.N.J.J.R.J.a.x.a.a.",
"J.W.R.J.N.N.a.N.J.W.R.F.N.N.N.N.W.!.=.j 2 $ & @ = # $ b L _ ! K R R R _ _ _ ' _ _ ) ' 9.N.N.N.a.J.H.R.F.N.N.N.N.!.!.R.!.",
"!.!.!.R.a.a.a.a.!.!.!.!.a.a.a.a.W.!.:.j 2 + + -   + $ p H _ Q ' ~ / ' _ _ Q ! ~ _ _ ' 9.m.x.a.a.!.!.!.!.a.a.a.a.R.!.!.!.",
"!.!.!.!.a.a.g.N.!.!.!.!.a.a.g.N.C.W.-.s 1 % o - 7 O   y H ' ~ E _ ~ J _ _ ' ' R _ T E 9.g.v.x.N.R.!.!.!.a.a.g.N.!.!.!.!.",
"!.R.!.R.x.k.v.N.R.!.R.R.x.N.N.a.K.!.-.i 0 - O 6 $ % * n H R Q _ ~ _ ' _ _ _ ~ ~ ' ) ) 8.x.N.f.g.!.!.R.R.x.N.N.a.R.J.!.!.",
"a.a.N.a.!.R.H.R.a.N.N.g.R.R.!.!.k.A.o.g 1 # O $ $ # O r H ~ ~ _ R ~ _ _ _ _ ~ _ K _ ' 4.!.!.!.L.f.N.N.a.!.H.!.!.N.a.a.a.",
"f.a.a.a.!.!.!.!.k.v.a.a.!.!.!.R.f.m.o.i q = @ $ $ $ O n H _ ~ ~ ~ _ _ ~ ~ _ R ~ ~ ~ R 6.!.!.!.R.m.x.a.a.!.R.!.R.a.a.a.a.",
"a.a.a.m.!.!.!.!.x.a.a.x.W.!.!.!.a.c.o.i q # O & $ $ O r H K K _ _ _ ~ R R _ ~ _ ~ _ R 7.!.!.!.W.f.a.a.a.R.!.!.!.v.a.a.a.",
"f.m.N.N.F.R.J.J.N.k.N.N.J.H.R.J.N.M.=.i 8 # O $ $ - O n H R K / ~ _ _ ~ ~ _ _ _ ~ _ ' 7.J.W.!.J.N.k.N.N.J.R.R.J.x.k.a.a.",
"J.!.R.J.N.N.N.N.J.R.J.J.N.N.N.N.P.H.-.g 8 = & $ $ $ @ r H R ~ ~ _ ~ _ _ ~ R _ _ ~ _ ' 8.k.v.N.k.J.R.J.J.N.N.N.N.!.R.!.R.",
"!.!.!.R.a.a.a.a.!.!.!.R.a.a.a.a.!.R.-.g 8 = O $ $ # O n H K ~ ~ _ ~ _ _ _ _ ~ _ ~ _ ' 8.a.x.a.a.!.!.!.R.a.a.a.a.!.!.!.!.",
"R.!.!.!.N.a.f.m.H.!.!.!.a.a.a.k.!.R.-.g 1 # $ $ & = O r H R ~ _ ~ R T ~ ~ _ _ ~ K T ' 9.a.x.N.k.H.!.!.!.f.a.a.m.!.!.!.!.",
"R.!.!.R.a.f.m.N.!.R.R.!.f.N.m.m.P.R.-.g 8 = O $ $ $ @ r H K K / _ _ _ _ _ _ ~ R ~ ~ ' 9.f.v.f.a.!.R.R.!.a.N.N.a.R.R.!.!.",
"a.x.N.f.!.R.R.J.N.a.f.N.J.!.!.F.v.M.o.a 1 * O $ $ = O r H R ~ ~ _ ~ _ _ ~ _ ~ _ K ~ ' 4.!.!.!.W.x.N.N.f.!.R.R.!.N.N.g.a.",
"f.a.a.g.!.!.!.W.x.a.g.v.R.!.!.J.f.m.o.g 8 = O $ $ $ O n H K ~ K _ _ R ~ _ _ _ _ K _ ' 4.!.!.!.J.N.a.a.g.!.!.!.H.x.a.a.a.",
"a.a.a.x.!.!.!.!.g.a.a.m.J.!.!.!.f.m.o.a 8 = O & $ $ O n H T ~ ~ ~ _ _ ~ ~ ~ _ _ ~ K ' 7.!.!.!.!.a.a.a.f.R.!.!.!.k.a.x.a.",
"N.N.a.N.F.J.!.R.N.N.N.N.J.G.L.J.N.N.o.g 8 # O $ $ = O n H K ~ _ _ ~ R _ _ R ~ _ K K R 8.J.R.W.J.N.N.m.N.J.J.R.H.v.g.a.a.",
"H.R.H.F.N.N.N.N.R.!.J.F.k.a.k.N.P.D.-.g 8 = & $ $ - O n H ~ ~ ~ R ~ _ _ ~ _ _ ~ ~ _ ' 8.k.N.v.k.J.R.J.J.N.N.N.N.!.R.!.R.",
"!.!.!.!.m.a.a.a.!.!.!.!.k.a.a.p.!.!.-.g 8 # @ $ $ $ O n H R K ) _ ~ ~ _ _ ~ R _ ~ _ ) 8.a.x.a.a.!.!.!.R.x.a.a.g.R.!.!.!.",
"!.!.!.R.k.a.a.a.J.!.!.W.g.a.p.a.!.R.-.g 1 * $ & $ # O r H T ~ ~ _ _ _ ~ _ _ _ _ K R ' t.a.N.v.k.R.!.!.!.a.a.a.v.!.!.!.!.",
"!.R.!.!.a.f.m.N.R.!.!.J.p.p.w.p.P.R.-.g 1 = @ & $ $ O n H K ~ _ _ _ ~ R _ ~ _ ~ ~ T R 9.a.v.f.a.W.R.!.!.x.N.k.a.R.R.!.!.",
"m.a.N.a.!.R.R.H.N.N.N.N.H.a.p.a.N.N.o.g 8 = O # $ # @ n H ~ K _ _ ~ _ _ _ ~ _ _ K ~ ' 4.W.!.!.!.a.N.N.a.!.R.!.!.m.N.a.a.",
"a.a.x.g.!.!.!.H.x.x.a.N.!.R.P.W.f.m.o.g 8 = O - & o o r ! ' K _ _ _ _ _ _ _ R ~ ~ ~ ' 4.W.!.!.L.N.a.a.a.!.!.!.H.a.a.a.a.",
"a.a.a.f.R.!.!.!.N.x.a.k.!.!.!.L.f.x.o.i 1 # $ $ & & @ n H A L ) ~ R ~ _ K _ ~ _ K _ R 7.!.!.!.!.a.a.a.m.!.!.!.R.v.g.a.a.",
"m.N.N.N.J.R.!.J.x.N.x.N.J.W.W.W.v.m.=.g 8 = $ $ O * $ n F p Z T _ ~ _ _ _ _ _ _ K K ' 8.R.H.H.L.N.N.N.N.F.H.R.J.f.x.a.a.",
"J.P.R.J.N.N.a.k.!.!.!.D.N.N.a.a.P.D.-.g q = $ $ $ $ o r H f S T _ ~ _ _ ~ _ ~ _ ~ _ R 8.N.v.N.N.J.H.H.F.N.x.N.N.!.!.!.R.",
"!.!.!.!.a.a.a.a.R.!.!.!.N.g.N.N.!.R.-.g 1 # 6 $ $ 6 & n H J _ ) _ _ ~ R _ _ ~ R ~ _ ' 8.a.a.a.a.R.!.!.!.g.a.a.a.R.!.!.!.",
"!.!.!.R.a.a.g.v.!.!.!.!.a.a.a.a.!.R.-.g 1 # $ $ o # & r H K K _ _ T _ ~ _ _ _ _ K K ' 9.N.x.f.k.R.!.!.!.N.a.v.k.!.!.!.!.",
"!.R.R.!.x.N.N.N.H.R.H.!.a.a.a.N.C.R.-.g q = & $ 7 $ O r H _ K _ _ ~ _ _ K _ ~ _ _ K ' 9.a.v.f.a.!.!.R.!.a.N.g.x.R.H.!.R.",
"x.a.k.v.!.R.H.R.a.m.N.a.!.R.!.!.v.N.o.g 8 # O $ $ $ O n H R ~ ) _ _ _ _ _ ~ ~ R K ~ ) 7.!.!.!.R.v.k.N.x.!.R.R.!.N.x.a.a.",
"g.a.a.a.!.!.!.!.N.f.a.a.!.!.!.R.f.m.o.g 8 = @ $ $ # o n H K K ~ _ T ~ _ _ _ _ ~ ~ _ ' 4.!.!.W.J.g.a.a.a.!.!.!.H.a.a.a.a.",
"a.a.a.a.R.!.!.!.a.a.a.v.!.!.!.R.f.m.o.a 8 = O & $ $ O n H ~ K _ ~ R ~ _ _ ~ _ _ ~ K R 8.!.!.!.!.a.a.a.m.!.!.!.!.N.a.a.a.",
"k.v.N.N.J.R.L.L.N.N.g.N.F.H.H.J.k.M.o.g 8 = O # $ - O n H ~ ~ ~ _ ~ _ _ ~ R _ _ K K ' 7.R.W.W.L.N.N.N.N.F.R.R.J.a.a.a.a.",
"J.R.H.J.N.N.N.N.J.R.H.J.N.N.N.N.P.D.-.g 8 # @ $ & = O n H _ ~ T _ _ _ _ ~ R ~ ~ ~ K ' 8.k.v.N.k.J.H.H.J.N.a.N.N.!.R.!.!.",
"!.!.!.!.x.a.a.a.R.!.!.R.m.a.a.g.!.R.-.g 8 # O $ $ $ O n H T ~ ~ ~ _ _ K _ _ _ _ ~ ~ ' 8.a.x.a.a.R.!.!.!.k.a.a.f.!.!.!.!.",
"R.!.!.R.f.a.f.x.P.!.!.!.a.a.a.v.W.R.-.g 1 = @ $ $ $ O r H ~ ~ _ ~ R _ _ ~ _ _ ~ K K ' 8.a.N.f.v.R.!.!.!.a.a.f.m.!.!.!.!.",
"!.R.!.!.a.k.m.N.W.R.!.!.a.N.N.a.P.D.-.g 8 = 6 $ $ # O n H R ~ _ ~ _ _ ~ _ _ _ _ _ K ' t.a.v.f.a.!.!.R.!.x.N.m.a.R.R.!.R.",
"x.g.N.a.!.R.R.J.a.N.N.a.!.!.R.W.f.m.%.u 8 % 6 & % # O r ! T _ ) ~ ~ ~ R R ' K R R ! ` 6.W.L.C.!.x.N.N.g.!.!.R.!.N.k.a.a.",
"x.a.a.a.!.!.!.W.v.a.a.a.!.!.!.P.k.n.;.f 8 X # $ $ = 9 v H ' _ Q ' ) R K _ _ / ~ H H ` 0.!.!.!.H.N.g.a.a.!.!.!.R.v.a.a.a.",
"a.a.a.k.!.!.!.!.g.a.a.m.R.!.!.R.f.n.q.=.$.2.@.$.{ 1.#.I D K E E ' R K ~ H ! ~ ~ |  .*.y.!.!.!.!.a.a.a.k.R.!.!.!.f.g.a.a.",
"N.N.a.N.J.J.!.R.N.N.N.N.J.H.R.J.b.m.k.B.W.!.!.W.h.m.g.} H ~ K H K K H / [ +.>.0.e.s.f.Z.R.L.L.C.N.N.x.N.J.H.H.H.m.a.a.m.",
"J.R.R.F.N.N.N.N.J.H.H.F.N.m.N.N.W.C.V.H.f.k.g.f.!.!.W.| F H ~ ^ ] ..,.r.s.f.a.g.V.R.R.J.k.g.N.b.J.R.R.F.N.N.N.N.!.!.R.!.",
"!.!.!.!.m.a.a.a.R.!.!.!.f.a.a.a.!.W.!.W.g.a.a.z.W.!.C.O.Y } ;.7.l.l.C.G.N.a.a.N.C.!.!.P.k.a.m.v.R.!.!.!.x.a.a.g.R.!.!.!.",
"!.!.!.R.a.a.a.a.R.!.!.!.a.a.v.k.H.!.W.W.n.x.c.a.!.!.!.j.y.N.f.c.!.!.!.W.N.a.a.a.S.W.!.W.B.a.g.g.P.!.!.!.a.a.a.v.!.!.!.!.",
"!.R.!.!.f.v.g.N.!.!.R.!.a.N.g.x.D.R.W.l.g.a.v.g.W.C.R.J.Z.n.p.B.H.R.D.F.N.m.a.f.!.V.V.D.b.a.g.f.W.R.R.!.x.N.k.a.H.R.!.!.",
"m.g.N.v.R.!.!.H.N.a.f.N.R.!.!.J.m.g.v.N.R.!.!.J.m.x.k.N.R.!.R.H.m.a.a.N.R.!.R.J.N.f.a.N.R.!.R.H.N.f.g.N.R.!.R.H.m.N.a.a.",
"a.a.f.a.R.!.!.R.m.a.f.m.R.!.!.R.k.a.v.g.R.!.!.R.f.a.x.g.!.R.!.H.v.a.a.N.!.!.!.R.m.a.m.f.!.R.!.H.x.a.a.v.R.!.!.H.f.a.N.a.",
"a.a.m.f.!.!.!.R.a.a.a.a.!.!.!.!.a.a.a.a.!.!.!.!.a.a.a.f.!.!.!.!.a.a.a.a.R.!.!.!.a.a.a.a.!.!.!.!.f.a.a.a.!.!.!.!.a.a.a.a.",
"a.a.a.a.!.!.!.!.a.a.a.a.R.!.!.!.a.a.a.a.R.!.!.!.f.a.a.m.R.!.!.!.g.a.a.x.!.!.!.!.a.a.a.f.R.!.!.!.a.a.x.g.R.!.!.!.a.a.a.a."
};
