/* XPM */
static char *_36c42b6c0a64e268797090ab45d5652y12ToD7xqKmyI3RO[] = {
/* columns rows colors chars-per-pixel */
"64 64 190 2 ",
"   c None",
".  c #3C1F23",
"X  c #1D222E",
"o  c #2C2327",
"O  c #22242C",
"+  c #2C2429",
"@  c #2C292A",
"#  c #26282D",
"$  c #342325",
"%  c #3E2222",
"&  c #342C26",
"*  c #3C2B23",
"=  c #342529",
"-  c #332B29",
";  c #3B2B2D",
":  c #3C3124",
">  c #3C322A",
",  c #212732",
"<  c #262933",
"1  c #2A2F39",
"2  c #272D38",
"3  c #3A2E32",
"4  c #2F3339",
"5  c #3F3134",
"6  c #31353D",
"7  c #3A353C",
"8  c #44251E",
"9  c #462A1F",
"0  c #4B2C1D",
"q  c #502F1C",
"w  c #46321F",
"e  c #4D331D",
"r  c #4D391E",
"t  c #563617",
"y  c #583717",
"u  c #573817",
"i  c #5C3B17",
"p  c #53341A",
"a  c #58371A",
"s  c #55391A",
"d  c #5A3B1A",
"f  c #603F16",
"g  c #603F1A",
"h  c #432421",
"j  c #462921",
"k  c #4B2B21",
"l  c #412C2C",
"z  c #443224",
"x  c #4C3221",
"c  c #45322B",
"v  c #4B352B",
"b  c #4D3D2A",
"n  c #4B3921",
"m  c #533322",
"M  c #523E21",
"N  c #5A3922",
"B  c #523A2A",
"V  c #443333",
"C  c #4A3E3C",
"Z  c #493B35",
"A  c #563E33",
"S  c #5F4016",
"D  c #5E4119",
"F  c #654316",
"G  c #684616",
"H  c #6B4916",
"J  c #63431A",
"K  c #68471A",
"L  c #66481C",
"P  c #6C4B1A",
"I  c #714F1C",
"U  c #6F501F",
"Y  c #74521D",
"T  c #79561E",
"R  c #7B581F",
"E  c #564225",
"W  c #5B4525",
"Q  c #5B4828",
"!  c #53473B",
"~  c #574536",
"^  c #484239",
"/  c #634322",
"(  c #654A25",
")  c #6B4A21",
"_  c #634A2B",
"`  c #684720",
"'  c #714F21",
"]  c #6E5120",
"[  c #745321",
"{  c #795722",
"}  c #7D5A21",
"|  c #624E3D",
" . c #7F6029",
".. c #353A41",
"X. c #3B3D43",
"o. c #413A41",
"O. c #3C4146",
"+. c #3D4249",
"@. c #444444",
"#. c #4A4445",
"$. c #4C4945",
"%. c #42464B",
"&. c #464A4E",
"*. c #494C4D",
"=. c #524744",
"-. c #534B4D",
";. c #5A4D48",
":. c #4E514F",
">. c #54504B",
",. c #5C5245",
"<. c #474B52",
"1. c #4A4E52",
"2. c #514D53",
"3. c #4E5355",
"4. c #4F5458",
"5. c #535455",
"6. c #595655",
"7. c #535956",
"8. c #5C5956",
"9. c #52565A",
"0. c #565A5B",
"q. c #5A5C5C",
"w. c #5C565C",
"e. c #625C54",
"r. c #635E5B",
"t. c #695D52",
"y. c #5D625D",
"u. c #61655E",
"i. c #6A615E",
"p. c #72695F",
"a. c #5B5E62",
"s. c #5E6362",
"d. c #616563",
"f. c #696665",
"g. c #646A64",
"h. c #6A6C66",
"j. c #636769",
"k. c #666969",
"l. c #6A6D6A",
"z. c #696568",
"x. c #726F6D",
"c. c #6C726B",
"v. c #6F796F",
"b. c #6A7067",
"n. c #71746E",
"m. c #71796F",
"M. c #6E7171",
"N. c #737572",
"B. c #747A73",
"V. c #7A7C76",
"C. c #76797A",
"Z. c #7B7D7A",
"A. c #767575",
"S. c #815E24",
"D. c #846125",
"F. c #866328",
"G. c #8F6C2A",
"H. c #916E2B",
"J. c #94702B",
"K. c #80786D",
"L. c #817F7C",
"P. c #7D817C",
"I. c #788177",
"U. c #81837E",
"Y. c #7F8282",
"T. c #838582",
"R. c #858985",
"E. c #898C86",
"W. c #8D8E8A",
"Q. c #8B8D8C",
"!. c #888785",
"~. c #908D8B",
"^. c #8D918C",
"/. c #91928D",
"(. c #99948F",
"). c #939491",
"_. c #979995",
"`. c #999995",
"'. c #9A9995",
"]. c #9C9C99",
"[. c #979A98",
"{. c #A69E9C",
"}. c #ABA59D",
"|. c #A4A49F",
" X c #A4A4A1",
".X c #ACABA9",
"XX c #ABA9A5",
"oX c #B0A3A2",
"OX c #B2B1AD",
"+X c #BCBBBA",
/* pixels */
"                                                                                                                                ",
"                                                                                                                                ",
"                                                                                                                                ",
"                                                                                                                                ",
"                                                                                                                                ",
"                                                                                                                                ",
"                                                                                                                                ",
"                                                                                                                                ",
"                                                                                                                                ",
"                                                                                                                                ",
"                                          !./.~.W.W.N.(.|. XXX.X.X/.Z.o.z.z.r.5.5.C                                             ",
"                                oX{.].'.T.g.N.P.R.n.&.5.R.U.E.E.E.E.B.+.].W.W.P.C.q.6...2.w.6.2.  Z.                            ",
"                          {.}. X X]./.U.4 9.U.Z.B.0.7.A.B.b.v.n.c.l.0.4.R.k.l.N.A...9.Q.!.!.~.T.r.w.7.2.                        ",
"                      ].T.1.%.V.I.M.B.B.<.).B.d.q.5.V.l.q.7.y.d.d.O.%.l.!.d.l.l.1.%.W.T.A.B.B.P.B.l...A.5.8.h.h.                ",
"              }.'.].OXP.N., ..g.g.l.N.j.6 s.M.c.O.N.l.C.l.0.%.7 ..9.N.<.q.9.7.%.W.Z.B.n.B.l.b.q.9.9.].Q.c.U.f.o.7 -.            ",
"      ~.(.W.T.)./.E.R.V.b.&.d.q.4.O.s.C.j.P.N.3.q.).T.C.U.R.M.7...'.).N.d.j.M.M.9.X.d.d.d.g.*...A./.E.M.d.g.l.&.x.d...o.o.      ",
"h.A.Q.~.[.M.C.C.m.n.v.d.&.P.V.B.k.+.1.V.P.V.N.3.*.l.U.v.b.c.c.b.< <.).v.n.n.V.C.0.4.s.l.1.1.4.s.M.C.l.u.s.l.&.!.R.V.<.k.R.x.2.  ",
"L.{.T.V.V.l.0.g.s.&.*.0.l.P.b.s.b.b.7.&.l.b.b.5.$.o $.,.,.>.~ 7 O j | B >.8.h.7...M.V.C.E.c.1 V.k.j.h.y.0.E.T.B.c.N.s.T.[.L.h.7 ",
"d.U.c.B.V.M.c...<.a.3.7.<.3.0.l.b.v.l.6 ^ Z z z q q q . 8 8 0 $ + 0 q 8 x x q V #.=.u.g.g.c.1 ).).C.3.d.l.Z.l.0.d.l.C.).U.B.N.l.",
"q.u.b.N.c.y.a.R.).E.N.b.l.7.4 X.+.@.! z n 0 8 8 8 8 . 8 8 8 8 * % 0 0 % 0 0 0 . 8 0 x ~ $.3.7 (.).V.1.9.d.d.j.l.d.Q. XU.A.U.n.B.",
"&.6 4.4.+.O.1.R.B.A.N.c.s.6 2 ^ z 0 0 8 q 0 0 h 8 8 . . 8 8 8 8 $ 9 0 9 8 0 8 8 . 8 8 q k v ;.K.f.i.e.X.!.'.).(.M.s.k.y.u.j.d.q.",
"9.V.T.T.0.g.N.l.3.1.*.*.%.3 w 0 8 0 0 . 0 0 8 % 8 8 8 . 8 0 0 o o p e t j 0 q 0 % 8 8 0 h 0 0 0 0 8 q z r.i.g.h...l.k.^.E.Q.R.B.",
"T.R.v.M.b.n.N.B.u.5.6 3 > e 0 8 8 8 0 h 0 8 8 h 0 q q 8 t i e O O u t q j a d p 8 0 q 0 . 0 0 8 0 % 0 0 0 Z >.h.s...b.).R.R.Y.P.",
"l.M.h.d.n.n.N.c.r.! n 8 0 0 0 8 8 0 0 8 0 q p 0 G S i 0 S S t X O i t 8 h F g F h a i p h q q q 0 8 0 0 9 0 ~ ~ &.y.^.c.s.b.v.B.",
"9.h.g.c.c.d.e.v e e q 8 8 0 8 8 8 0 0 8 p i F 0 P F f 8 S F t X O S F 8 0 J F F h K P d . a a p 0 h 0 N q % 8 0 e B n.5.3.0.y.s.",
"..O.&.y.>.B s % 0 0 0 8 h 0 0 8 8 d p h F F K k G f 0 h F u p X X S F t p F F i h J Y F . F I f y 8 t g g % . 0 e % ~ z 6 O.0.7.",
"!.d.3.$.s p q % 0 0 0 8 h q p 0 0 g f 8 i J L 8 f a 8 0 F t t X O F u F h G F h h I G F h G } G f 0 f f I . h p p . t y i.Y.B.Q.",
"n.U.U.h.J q q % p p 8 h m d J k 8 d i 8 p [ a h t y ) 0 F t t X X u u U k G F h h I F i h } I F f h G f [ j p p 8 % t t i B.c.v.",
"n.n.x.$.p p p % p p h h J } J p t F S h L L F h p J S.0 J g t X X t a J p G F h % ) J p % S.Y S y j F f I 0 j g h 0 u u s B.b.c.",
"m.n.n.C p 0 p 8 a g k h I T L a q F p % [ d F h t S.I k K d t X O p t m G H K a h T F t h T Y [ q 8 G G S.h . i 0 J D i s I.c.m.",
"r.q.0.Z j 9 9 % a J k $ M r r * h r $ $ E x r h I { F k g t 9 O e u a k F H G K h E r * = E x Q $ $ p M n % % i * z n : z g.h.y.",
"k.N.q.V + o o + : z - X X X X X X X X X X X X + b t P 0 i t X X t G u k L H i * + X X X X X X X X X X X X + = : X X X 2 a.P.Y.&.",
"_.(.n.l $ * o . d L W - & : - = @ : & + & - + k d i Y 0 t t X O u G F e p F F p h * - - o + & & & - & : - $ S.J & @ & 3 N.P.T.P.",
"y.n.i.l 0 e 8 8 F I Y k L I u 0 p Y P h F a h k J H P 8 t t # X F G i F k { F G k F F t . t y G F p H F a h I S.f 0 D N n.P.b.v.",
"y.v.u.l 0 p q % F I ` m P J f q F I K j S P f h J Y F 0 u i i O t F i F k S.F i k P F y % y F G d m H F h 8 F G.g 0 i d n.v.B.c.",
"y.l.e.* 0 p 0 . F } p k i F F 0 K Y F j K H F h J T G 0 F F u O t G F F k I G f j G J f % f G i F m G i . 8 G H.G 8 i a h.C.v.c.",
"7.y.r.c 0 p 0 h f D.K h y F F 0 F Y a h I G F 8 K P H 0 F i t O p G J p N P P G j I J f h F G i F m F f q % F H.F h d W s.j.3.d.",
"1.1.#.; 0 p q h f Y D.h y f i 8 G Y h h I G f 8 K J p k i t t O u G G h F.P Y G h S.I J % G f G m m G F ' h J H.J 0 J _ `.).Q.Q.",
"[. XL.V 0 p q h g d D.j a y f 8 F T q k G G F h P K h j F t t O r F F h D.H F F 8 S.I F h F F G k k d G Y h H.I F 0 J N Z.E.B.B.",
"N.V.U.V q p p h K a S.j a i f 0 G T g k F G G h G K 0 0 F t p X O p F h S.R G F 8 D.I F h i G G p h k F ' h H.K F q J s T.c.b.N.",
"v.h.n.V p 0 p h ` d S.h / p f j P R a k f G G h F G x F F u t X X p F h S.T I f 0 D.Y F h [ H G F 0 t F [ h J.K F 0 L d Y.d.d.v.",
"b.v.c.V q p p h a K D.k [ u F k Y I P k u G K h F F k H F u t X X t G y N H H q k I I F h H Y f F h F Y D h J.K p y ` d T.h.y.c.",
"b.N.c.Z p q p h i I { k [ d G 0 J P T k g H G j F J * i F i t X X t J F . _ F 8 ` G H F % i Y u F h F R p h H.J j k L a l.9.3.+.",
"g.+.&.> p q p 8 J ' [ h J ) G 0 y Y { 0 f G F j G ) O 8 G G t X X t f p $ O y 0 D.H F i 8 G F y F 0 G { a h H.H h h g s l.v.c.g.",
"1.s.z.l 0 0 p 8 J I [ h i [ g 0 t Y S.q f F F j r z X O r F F O X t F 8 X X w h T G G u h F y y H 0 I L p h F.K j h D d !.B.P.^.",
").XXx.l 0 p p 8 d g } h g { F k y I [ q f F f j @ w r $ O F F X X u i o * E O = G G F F . i y y N 0 T u p h D.K j h d N T.M.h.v.",
"B.N.e.l 0 p 0 h i F { 8 f } G 0 f P N h f F F j E w * * w S S X O p S X $ Q X - } G F G h y P i k 0 I y F 0 ` J k h p a P.Y.g.v.",
"m.n.6.l 0 p h 8 i F } h f } G 0 F g N h f G F k D.r e * F G u X X u F r j r r 0 P Y G G h J S.G ` 0 J J i m . J x a k s B.Y.g.b.",
"g.n.;.j 0 t 0 8 F F } k i I K 0 F F { k f G P k D.H d 0 F H t X O D u G e G H P 0 F I P h h D.H } 0 J J y % . J k F d a N.Q.s...",
"&.g.=.l 0 p p 8 J G } j F f F 0 F F / p F F T k S.F 0 d G i e X X y F F k G G P 0 u F P % h D.H S.0 I P F % h F j f y M W..X!.M.",
"C.1.3 = 0 p 0 h K F T k u S G j F F m p p F { 0 } G K 0 F t O X X p F F k F G F 0 F F t % J D.H } k g I F h d K k J t s B.E.N.v.",
"B.N.C h 0 0 0 0 F u Y h p i F h D y x e p F D.0 [ H I k F t X X w t F e k F F i k i F p % J / P ( j i P J h F ] = 0 s s A.T.l.v.",
"d.q.; % $ - * * r w @ X O O O O X O O O O # Q % x } K k F p X O t t F 8 h u F j $ o X # X O O # O O O # O = E # X X O < N.T.l.v.",
"g.u.o.$ $ $ 9 o O O # X O X O O # X X # O # # $ 9 } L 0 F t X O e t f 8 h d F * $ # O X X O O # # X O X X O Q # X X O , M.Z.v.n.",
"i.h.u.% * 8 e 8 U D F > : & L j S D j s D D [ j 8 { k j d e X O t i F . % i F h k i e . % J i Y J j D p r % ` e @ + e - N.Y.l.v.",
"m.y.h.v 0 q p 8 R S F m F d Y 0 L J p p J G I 8 j T 0 j D t O O t F F h / i p 8 m i p . . F J T J 8 F t H % h i 0 i f a n.0.&.%.",
"l.*.6 ; 0 p 0 8 Y D f h G P K 0 F d d p J F [ h k J F k D t X X u F F h N u d j Y F a 0 . G I J i 8 G i I % J F 0 J F d V.Q.T.Z.",
"Q.C.5.l 8 0 0 8 F { F k G Y H h d g i q F R I j ` F F k d t X X & d F h m 8 F h T F J G h K T y y h G G J h D F 8 J J d V.!.V.E.",
"I.V.y.l 0 e 0 0 L } G k G I G 0 F J p N I R F h Y u y k N p X X X s G t 0 k F 8 { d P G h T H G L 0 G J J h J F 0 D J D n.P.v.v.",
"m.B.6.l 0 p q 0 F R H W H F u k J d q N S.G q j P u F k a p w X X t D S k j F 0 K ) P G . ) H H F h G H J % D F j D L u h.C.g.l.",
"s.q.-.; 0 p p 8 F H } p G F u 0 F u 0 { I F h h F i F m t t t O X p F F h h G F 8 S.H F h f H G H h G } y % J J h J L d Z.A.q.M.",
"Y.C.3 ; q p p 8 F f P 8 F F y 0 F f m J g G q p 0 i G m F F i X X u J G . p G F 8 I T G . 9 F H G h T Y f % F J h e D N `.+X).^.",
"P.V.7.3 q p f 0 F y f 8 F F p 0 f f p q f G F 0 h P } 0 F F i O X t F f h F G F 8 F I K . . H H F h D.F F . F D h h d d B.P.c.v.",
"v.N.u.5 p p f q F y t p F F p k p a p i F f i 8 0 J L 0 t i t : X t i p h u u t a i a i . . F H p h } i F % u t 8 j D u n.s.b.v."
};
