/* XPM */
static char *result[] = {
/* columns rows colors chars-per-pixel */
"64 64 215 2 ",
"   c #000000",
".  c #0C0C0C",
"X  c #080708",
"o  c #131213",
"O  c #191616",
"+  c #1D1A1B",
"@  c #181618",
"#  c #100F11",
"$  c #221D1E",
"%  c #2C231E",
"&  c #34281F",
"*  c #1F1D20",
"=  c #221F20",
"-  c #1F2228",
";  c #1D2A35",
":  c #172E3F",
">  c #1B2C3A",
",  c #1C2732",
"<  c #242223",
"1  c #2A2322",
"2  c #21252B",
"3  c #2C292B",
"4  c #28272A",
"5  c #392622",
"6  c #332A26",
"7  c #252C35",
"8  c #21303F",
"9  c #353334",
"0  c #3C3C3C",
"q  c #383638",
"w  c #39302C",
"e  c #4B341F",
"r  c #5B3C1E",
"t  c #412F1E",
"y  c #69301F",
"u  c #432A21",
"i  c #4C2A21",
"p  c #572D21",
"a  c #483321",
"s  c #5A3721",
"d  c #693322",
"f  c #7B3722",
"g  c #66421E",
"h  c #794D1E",
"j  c #784E20",
"k  c #634220",
"l  c #15354C",
"z  c #183348",
"x  c #153B58",
"c  c #1A2F41",
"v  c #273746",
"b  c #363C43",
"n  c #253C52",
"m  c #413F41",
"M  c #3F4044",
"N  c #174466",
"B  c #0A4D7C",
"V  c #0B4975",
"C  c #184E78",
"Z  c #1C517B",
"A  c #0E466E",
"S  c #3C607D",
"D  c #2E5676",
"F  c #434243",
"G  c #4B4B4C",
"H  c #474648",
"J  c #545353",
"K  c #5C5B5C",
"L  c #585657",
"P  c #4D4E52",
"I  c #5C5F63",
"U  c #646465",
"Y  c #6B6B6C",
"T  c #646569",
"R  c #6A6D72",
"E  c #717173",
"W  c #7B7B7C",
"Q  c #75777B",
"!  c #707072",
"~  c #586B7C",
"^  c #883C23",
"/  c #923F23",
"(  c #983F23",
")  c #8C581E",
"_  c #965E1F",
"`  c #884E1E",
"'  c #9D631E",
"]  c #AA6B1F",
"[  c #BA761D",
"{  c #B26E1E",
"}  c #9A4123",
"|  c #8D4124",
" . c #AA4524",
".. c #BB4A25",
"X. c #BD5424",
"o. c #B66F25",
"O. c #C67B1E",
"+. c #C84E26",
"@. c #DC5427",
"#. c #D35127",
"$. c #CE5026",
"%. c #E45628",
"&. c #EC5928",
"*. c #E55628",
"=. c #F15E27",
"-. c #F25A28",
";. c #CA7B22",
":. c #F26327",
">. c #F26B25",
",. c #F37423",
"<. c #F47C22",
"1. c #EF6027",
"2. c #D8851D",
"3. c #D2911C",
"4. c #F58E1F",
"5. c #EA991C",
"6. c #F6921E",
"7. c #F7991D",
"8. c #F8971E",
"9. c #E7A61B",
"0. c #F8A21C",
"q. c #FAAC1B",
"w. c #F5A91B",
"e. c #FBBA19",
"r. c #FAB61A",
"t. c #DA8D34",
"y. c #F48221",
"u. c #F68920",
"i. c #F69524",
"p. c #EC9632",
"a. c #FAA23C",
"s. c #FECD17",
"d. c #FDC318",
"f. c #FFC818",
"g. c #FFD316",
"h. c #FFDA15",
"j. c #DE9745",
"k. c #F9A749",
"l. c #F0A854",
"z. c #FAB362",
"x. c #FABE78",
"c. c #E79E4A",
"v. c #FAC07D",
"b. c #0C5487",
"n. c #165789",
"m. c #0F5B92",
"M. c #165D94",
"N. c #2C5E86",
"B. c #17639D",
"V. c #2E6A9A",
"C. c #1768A6",
"Z. c #1A6FB1",
"A. c #166FB3",
"S. c #1A71B5",
"D. c #1A75BB",
"F. c #1873BA",
"G. c #2579BC",
"H. c #2E73AA",
"J. c #7E7F82",
"K. c #647686",
"L. c #7F8083",
"P. c #6E92AE",
"I. c #3A88C5",
"U. c #2980C4",
"Y. c #4D94CB",
"T. c #5697C9",
"R. c #4D95CC",
"E. c #68A4D3",
"W. c #73A9D3",
"Q. c #6B9EC6",
"!. c #808184",
"~. c #8D8D8D",
"^. c #868789",
"/. c #928F8F",
"(. c #8F9195",
"). c #949495",
"_. c #9C9C9C",
"`. c #969799",
"'. c #8E8E90",
"]. c #A09E9D",
"[. c #9E9FA1",
"{. c #9FA0A2",
"}. c #A4A4A5",
"|. c #AAAAAB",
" X c #A6A6A8",
".X c #B4B4B5",
"XX c #BBBABA",
"oX c #B6B6B8",
"OX c #A5B1BB",
"+X c #FCC789",
"@X c #FCCB93",
"#X c #FCD8AD",
"$X c #88B5D8",
"%X c #A8BECF",
"&X c #BCCAD4",
"*X c #98C1E1",
"=X c #B9D4EA",
"-X c #A5C7E1",
";X c #C7C7C7",
":X c #D4D4D4",
">X c #DCDCDD",
",X c #D0CFCF",
"<X c #FFE6C8",
"1X c #FFECD6",
"2X c #DEE2E5",
"3X c #DEECF6",
"4X c #E3E3E4",
"5X c #EBEBEB",
"6X c #E8E6E6",
"7X c #FEF3E6",
"8X c #F4F4F4",
"9X c #FEFEFE",
"0X c #FCFAF7",
"qX c #E9F3FA",
"wX c None",
/* pixels */
"wXwXwXwXwXwXwXwXwXwXwXwXwXwXwXwXwXwXwXwXwXwXwXwXwXwXwXwXwXwXwXwXwXwXwXwXwXwXwXwXwXwXwXwXwXwXwXwXwXwXwXwXwXwXwXwXwXwXwXwXwXwXwXwX",
"wXwXwXwXwXwXwXwXwXwXwXwXwXwXwXwXwXwXwXwXwXwXwXwXwXwXwXwXwXwXwXwXwXwXwXwXwXwXwXwXwXwXwXwXwXwXwXwXwXwXwXwXwXwXwXwXwXwXwXwXwXwXwXwX",
"wXwXwXwXwXwXwXwXwXwXwXwXwXwXwXwXwXwXwXwXwXwXwXwXwXwXwXwXwXwXwXwXwXwXwXwXwXwXwXwXwXwXwXwXwXwXwXwXwXwXwXwXwXwXwXwXwXwXwXwXwXwXwXwX",
"wXwXwXwXwXwXwXwXwXwXwXwXwXwXwXwXwXwXwXwXwXwXwXwXwXwXwXwXwXwXwXwXwXwXwXwXwXwXwXwXwXwXwXwXwXwXwXwXwXwXwXwXwXwXwXwXwXwXwXwXwXwXwXwX",
"wXwXwXwXwXwXwXwXwXwXwXwXwXwXwXwXwXwXwXwXwXwXwXwXwXwXwX1 = = % < < 1 = = wXwXwXwXwXwXwXwXwXwXwXwXwXwXwXwXwXwXwXwXwXwXwXwXwXwXwXwX",
"wXwXwXwXwXwXwXwXwXwXwXwXwXwXwXwXwXwXwXwXwXwXwXwXwX= + O . . X o b I K G q 1 $ wXwXwXwXwXwXwXwXwXwXwXwXwXwXwXwXwXwXwXwXwXwXwXwXwX",
"wXwXwXwXwXwXwXwXwXwXwXwXwXwXwXwXwXwXwXwXwXwXwX1 + . + G L.`.9   X 4 T !.W Y H 3 + wXwXwXwXwXwXwXwXwXwXwXwXwXwXwXwXwXwXwXwXwXwXwX",
"wXwXwXwXwXwXwXwXwXwXwXwXwXwXwXwXwXwXwXwXwX1 + . 4 W ,X0X8X^.O       . G J.!.!.Y F 1 wXwXwXwXwXwXwXwXwXwXwXwXwXwXwXwXwXwXwXwXwXwX",
"wXwXwXwXwXwXwXwXwXwXwXwXwXwXwXwXwXwXwXwX= O # U :X9X9X.X0             X H L.L.!.L.K 3 % wXwXwXwXwXwXwXwXwXwXwXwXwXwXwXwXwXwXwXwX",
"wXwXwXwXwXwXwXwXwXwXwXwXwXwXwXwXwXwXwX= O + _.9X9X:XU .                   H L.L.!.!.R 9 $ wXwXwXwXwXwXwXwXwXwXwXwXwXwXwXwXwXwXwX",
"wXwXwXwXwXwXwXwXwXwXwXwXwXwXwXwXwXwX< o < oX9X0X_.4                       X L ^.L.L.!.W 9 $ wXwXwXwXwXwXwXwXwXwXwXwXwXwXwXwXwXwX",
"wXwXwXwXwXwXwXwXwXwXwXwXwXwXwXwXwX% o + .X9X>XK X                           + E !.L.L. X!.9 $ wXwXwXwXwXwXwXwXwXwXwXwXwXwXwXwXwX",
"wXwXwXwXwXwXwXwXwXwXwXwXwXwXwXwX% @ X `.9XXX9                                 b !.!.L.).;X! 4 wXwXwXwXwXwXwXwXwXwXwXwXwXwXwXwXwX",
"wXwXwXwXwXwXwXwXwXwXwXwXwXwXwXwX+ X J 5X~.o                                   . R !.!.L.oX;XL 1 wXwXwXwXwXwXwXwXwXwXwXwXwXwXwXwX",
"wXwXwXwXwXwXwXwXwXwXwXwXwXwXwX= #   E K X                                       F !.!.L.~.2X}.q = wXwXwXwXwXwXwXwXwXwXwXwXwXwXwX",
"wXwXwXwXwXwXwXwXwXwXwXwXwXwXwX+ X   X                                           @ Q !.!.L.oX4X! 4 wXwXwXwXwXwXwXwXwXwXwXwXwXwXwX",
"wXwXwXwXwXwXwXwXwXwXwXwXwXwX1 .                                                 X K !.L.L.(.5XoXa $ wXwXwXwXwXwXwXwXwXwXwXwXwXwX",
"wXwXwXwXwXwXwXwXwXwXwXwXwXwX+                                                     b !.L.L.L.;X5XK.4 wXwXwXwXwXwXwXwXwXwXwXwXwXwX",
"wXwXwXwXwXwXwXwXwXwXwXwXwX< o                                                     < J.L.!.L.[.8X|.q wXwXwXwXwXwXwXwXwXwXwXwXwXwX",
"wXwXwXwXwXwXwXwXwXwXwXwXwX$ X                                                     # Q !.!.L.^.4X:XL = wXwXwXwXwXwXwXwXwXwXwXwXwX",
"wXwXwXwXwXwXwXwXwXwXwXwXwXO                                                       X U !.L.!.L.XX8X!.4 wXwXwXwXwXwXwXwXwXwXwXwXwX",
"wXwXwXwXwXwXwXwXwXwXwXwX1 o + q                                                     L !.!.!.L._.8X|.9 wXwXwXwXwXwXwXwXwXwXwXwXwX",
"wXwXwXwXwXwXwXwXwXwXwXwX= X G |.X                                                   P !.!.L.!.^.4X;XH $ wXwXwXwXwXwXwXwXwXwXwXwX",
"wXwXwXwXwXwXwXwXwXwXwXwX=   W 8XF                                   4 F             H !.!.!.L.L.;X4XI $ wXwXwXwXwXwXwXwXwXwXwXwX",
"wXwXwXwXwXwXwXwXwXwXwXwX+   _.9X[.                              + W >XJ.            F !.!.!.L.L.|.5XR 1 wXwXwXwXwXwXwXwXwXwXwXwX",
"wXwXwXwXwXwXwXwXwXwXwXwXO X |.9X5X9                         o T ,X9X9XP             M !.!.!.!.L.`.4X!.1 wXwXwXwXwXwXwXwXwXwXwXwX",
"wXwXwXwXwXwXwXwXwXwXwXwXO   _.9X9X~.                    X L ;X9X9X9X4X<             H ^.!.L.!.!.^.>X'.3 wXwXwXwXwXwXwXwXwXwXwXwX",
"wXwXwXwXwXwXwXwXwXwXwX1 O   Y 9X9X>X4               X H .X8X9X9X9X9X X              P !.!.!.!.L.L.;X`.3 wXwXwXwXwXwXwXwXwXwXwXwX",
"wXwXwXwXwXwXwXwXwXwX$ 1 O   O .X9X9XW             q  X8X9X9X9X9X9X0XJ               L !.!.!.!.L.J..X`.3 $ $ wXwXwXwXwXwXwXwXwXwX",
"wXwXwXwXwXwXwXwX= 5 h h O     o P U 0         4 `.5X9X9X9X9X9X9X9XXX.             X T !.L.L.!.!.J.{.(.w _ g % = wXwXwXwXwXwXwXwX",
"wXwXwXwXwXwX* 6 j 2.i.] O                     q :X9X9X9X9X9X9X9X6XM               o E !.!.!.L.!.L.(.!.w 2.4.[ r 1 wXwXwXwXwXwXwX",
"wXwXwXwXwX= e o.v.#Xk.{ $                       < ).5X9X9X9X9X4XL                 2 J.!.!.L.!.L.L.^.! a t.+Xx.p.' & = wXwXwXwXwX",
"wXwXwXwX1 g t.<X9X7Xa.O.% .                         9 !.|..X~.9                   F L.!.L.!.!.!.!.Q H s p.1X9X<Xz.;.e * wXwXwXwX",
"wXwXwX$ g c.1X9X9Xx.6.4.' & o X                         X X                     X I !.!.L.!.!.!.U q a { 4.z.7X9X0X+X;.t wXwXwXwX",
"wXwXwXw t.<X9X0X+Xi.6.6.8.O.s $ . X                                             < J.L.L.!.L.R F 6 h 2.6.6.6.z.7X9X9X+X{ 1 wXwXwX",
"wXwX+ ) @X9X7Xv.i.6.6.6.7.0.5.] a + . X                                         J !.L.J.Y F 3 r [ 7.8.6.6.6.6.k.#X9X0Xl.r wXwXwX",
"wXwX1 o.x.#Xk.6.6.6.6.6.6.6.q.r.5.' s $ o . X                                 4 ! Y P q 6 k { 7.q.8.6.6.6.6.6.6.i.z.@Xk.` + wXwX",
"wXwX% +.4.6.4.4.6.6.6.6.6.6.6.7.e.d.9.[ h w % o o . X X X               X X . 3 9 6 a ) O.0.e.q.8.6.6.6.6.6.6.6.6.4.i.y.| % wXwX",
"wXwX$ } >.4.6.6.6.6.6.6.6.6.6.6.6.0.d.g.d.9.[ ) g e % $ + @ @ @ + @ + * % 5 a g ' O.5.r.d.e.7.8.6.6.6.6.6.6.6.6.6.6.u.-.d wXwXwX",
"wXwXwXp %.>.4.6.6.6.6.6.6.6.6.6.6.6.6.0.e.g.h.s.d.9.3.[ ] ' _ ) ) _ _ ] 2.2.5.r.e.s.s.e.0.6.6.6.6.6.6.6.6.6.6.6.4.u.:.+.5 wXwXwX",
"wXwXwX1 ^ &.:.u.i.6.6.6.6.6.6.6.6.6.6.6.6.7.w.d.g.h.h.h.g.g.s.f.s.f.f.s.g.h.g.g.d.q.7.6.6.6.6.6.6.6.6.6.6.6.6.6.<.=.*.d * wXwXwX",
"wXwXwXwX% / &.:.<.u.6.6.6.6.6.6.6.6.6.6.6.6.6.6.6.0.q.e.d.s.s.g.g.g.s.d.e.q.0.7.6.6.6.6.6.6.6.6.6.6.6.6.6.4.u.>.-.%.d = wXwXwXwX",
"wXwXwXwXwX1 f @.-.:.<.u.6.6.6.6.6.6.6.6.6.6.6.6.6.6.6.6.6.6.7.7.7.7.i.6.6.6.6.6.6.6.6.6.6.6.6.6.6.6.8.4.y.>.-.-.+.p 1 wXwXwXwXwX",
"wXwXwXwXwXwX= i  .&.-.-.>.<.4.4.6.6.6.6.6.6.6.6.6.6.6.6.6.6.6.6.6.6.6.6.6.6.6.6.6.6.6.6.6.6.6.6.u.y.,.:.-.-.@./ 5 $ wXwXwXwXwXwX",
"wXwXwXwXwXwXwX* = y  .*.-.-.:.:.,.<.<.4.u.6.6.6.6.6.6.6.6.6.6.i.6.6.6.6.6.6.6.6.6.4.6.u.u.<.<.>.:.-.-.-.@.} i 2 - wXwXwXwXwXwXwX",
"wXwXwXwXwXwXwXwXJ ! 3 i / +.&.-.-.-.-.:.:.>.>.>.,.<.<.<.y.<.y.y.y.y.y.y.<.<.,.,.>.>.:.:.=.-.-.-.-.%...f u 7 x V > wXwXwXwXwXwXwX",
"wXwXwXwXwXwXwXwXY =XV.N 8 1 p ^ ..@.-.-.-.-.&.-.&.-.-.-.-.-.-.-.&.-.-.-.-.-.-.-.-.-.-.-.&.*.#. .f i 3 z Z C.Z.b.c wXwXwXwXwXwXwX",
"wXwXwXwXwXwXwXwXU -XD.F.C.N z < 1 5 p f  ...#.%.&.&.-.-.-.-.-.-.-.-.-.-.-.&.&.*.@.$...} f p 5 $ m ).;XT.D.D.D.m.z $ wXwXwXwXwXwX",
"wXwXwXwXwXwXwXwXL $XF.S.m.V z - N Z 7 G 0 3 5 i p d f ^ / / ( } } ( / / ^ d y i u 5 4 > c c - v q '.6XqXE.D.D.C.x $ wXwXwXwXwXwX",
"wXwXwXwXwXwXwXwXJ W.F.C.A > F V.D.Z.v ;X$XB.n.n.N c : > = = b > 8 8 ; = H R Q D n.M.C.B.B x z C.Z 7 F ].2X$XG.F.N $ wXwXwXwXwXwX",
"wXwXwXwXwXwXwXwXG T.C.N 2 + ^.E.F.C.8 XX$XF.D.D.m.B V x 2 ^.&XG.Z.Z.C.> J :X9X*XG.D.D.A.b.x n F.D.n., = J  X$XG.C $ wXwXwXwXwXwX",
"wXwXwXwXwXwXwXwXb H.N % wX+ E Y.F.n.;  X$XS.D.C.B V x * = ).9XE.F.D.S.B ; G ,X0XE.S.F.A.b.z R R.D.B.> wX$ 1 L P.N.= wXwXwXwXwXwX",
"wXwXwXwXwXwXwXwX3 v < wXwXwXI I.C.z = ).E.F.F.m.V z < wXwX9 ,X=XG.D.S.b.l $ F ;X3XY.A.F.m.c L %XI.C.; wXwXwX$ 3 b < wXwXwXwXwXwX",
"wXwXwXwXwXwXwXwX= $ wXwXwXwXP H.z = + W T.F.C.V : * wXwXwX+ L 4XY.F.Z.b.; wX+ 0 XX=XG.F.M.> $ J P.C.2 wXwXwXwXwX+ = wXwXwXwXwXwX",
"wXwXwXwXwXwXwXwXwXwXwXwXwXwX8 v $ wXwXU R.F.B 7 $ wXwXwXwXwX= /.*XD.Z.A 2 wXwX+ 9 |.$XD.B., wX$ H N.3 wXwXwXwXwXwXwXwXwXwXwXwXwX",
"wXwXwXwXwXwXwXwXwXwXwXwXwXwX= $ wXwXwXP I.n.2 $ wXwXwXwXwXwXwX9 OXI.Z.x = wXwXwXwX9 `.R.C.2 wXwX= 2 1 wXwXwXwXwXwXwXwXwXwXwXwXwX",
"wXwXwXwXwXwXwXwXwXwXwXwXwXwX= wXwXwXwXb N.2 = wXwXwXwXwXwXwXwX+ L Q.C.> wXwXwXwXwXwX3 K.V.2 wXwXwX= = wXwXwXwXwXwXwXwXwXwXwXwXwX",
"wXwXwXwXwXwXwXwXwXwXwXwXwXwXwXwXwXwXwX< 2 = wXwXwXwXwXwXwXwXwXwX1 ~ V.2 wXwXwXwXwXwXwX3 b < wXwXwXwXwXwXwXwXwXwXwXwXwXwXwXwXwXwX",
"wXwXwXwXwXwXwXwXwXwXwXwXwXwXwXwXwXwXwX= wXwXwXwXwXwXwXwXwXwXwXwXwX3 n = wXwXwXwXwXwXwXwX= < wXwXwXwXwXwXwXwXwXwXwXwXwXwXwXwXwXwX",
"wXwXwXwXwXwXwXwXwXwXwXwXwXwXwXwXwXwXwXwXwXwXwXwXwXwXwXwXwXwXwXwXwX= % wXwXwXwXwXwXwXwXwXwXwXwXwXwXwXwXwXwXwXwXwXwXwXwXwXwXwXwXwX",
"wXwXwXwXwXwXwXwXwXwXwXwXwXwXwXwXwXwXwXwXwXwXwXwXwXwXwXwXwXwXwXwXwXwX= wXwXwXwXwXwXwXwXwXwXwXwXwXwXwXwXwXwXwXwXwXwXwXwXwXwXwXwXwX",
"wXwXwXwXwXwXwXwXwXwXwXwXwXwXwXwXwXwXwXwXwXwXwXwXwXwXwXwXwXwXwXwXwXwXwXwXwXwXwXwXwXwXwXwXwXwXwXwXwXwXwXwXwXwXwXwXwXwXwXwXwXwXwXwX",
"wXwXwXwXwXwXwXwXwXwXwXwXwXwXwXwXwXwXwXwXwXwXwXwXwXwXwXwXwXwXwXwXwXwXwXwXwXwXwXwXwXwXwXwXwXwXwXwXwXwXwXwXwXwXwXwXwXwXwXwXwXwXwXwX",
"wXwXwXwXwXwXwXwXwXwXwXwXwXwXwXwXwXwXwXwXwXwXwXwXwXwXwXwXwXwXwXwXwXwXwXwXwXwXwXwXwXwXwXwXwXwXwXwXwXwXwXwXwXwXwXwXwXwXwXwXwXwXwXwX"
};
