/* XPM */
static char *_be0c01dfea44ff4a17d70799129390e6BtYFezLKAyzNn87[] = {
/* columns rows colors chars-per-pixel */
"60 60 208 2 ",
"   c #1B0F07",
".  c #1F1006",
"X  c #141416",
"o  c #1C1A1B",
"O  c #15181C",
"+  c #231105",
"@  c #2E1A0C",
"#  c #24150A",
"$  c #351D0D",
"%  c #381F0E",
"&  c #281A16",
"*  c #3A1A17",
"=  c #3A210E",
"-  c #2F251E",
";  c #352112",
":  c #3C2311",
">  c #39281C",
",  c #1B1E22",
"<  c #1E2024",
"1  c #242123",
"2  c #2D292A",
"3  c #332B23",
"4  c #312F2C",
"5  c #392826",
"6  c #2F302F",
"7  c #3B332C",
"8  c #292D31",
"9  c #313234",
"0  c #3B3B39",
"q  c #461918",
"w  c #551C1C",
"e  c #561616",
"r  c #6B1919",
"t  c #791B1B",
"y  c #442915",
"u  c #4A2E18",
"i  c #432B19",
"p  c #4D311B",
"a  c #53351D",
"s  c #57381F",
"d  c #462424",
"f  c #562021",
"g  c #47372A",
"h  c #5C3C23",
"j  c #573820",
"k  c #493C38",
"l  c #692826",
"z  c #6F3534",
"x  c #633232",
"c  c #792F2E",
"v  c #3D403F",
"b  c #51432C",
"n  c #4E443B",
"m  c #644227",
"M  c #69472A",
"N  c #6D492C",
"B  c #60432A",
"V  c #724E2F",
"C  c #655B35",
"Z  c #785232",
"A  c #796A3E",
"S  c #394244",
"D  c #444C4C",
"F  c #4E4E4C",
"G  c #494541",
"H  c #534A42",
"J  c #5D4E4C",
"K  c #4C504C",
"L  c #5B554C",
"P  c #4E5C5D",
"I  c #525352",
"U  c #5B5954",
"Y  c #645649",
"T  c #6C5C5C",
"R  c #655E56",
"E  c #7F5C5B",
"W  c #6F4B4A",
"Q  c #6B645C",
"!  c #796B5F",
"~  c #736F5A",
"^  c #7C7658",
"/  c #776F4C",
"(  c #566464",
")  c #5A6768",
"_  c #5F6F70",
"`  c #5C7074",
"'  c #6E6C65",
"]  c #616B6A",
"[  c #6B6D6C",
"{  c #666462",
"}  c #726B65",
"|  c #72716A",
" . c #6B7474",
".. c #677B7E",
"X. c #647678",
"o. c #7D7A75",
"O. c #787A79",
"+. c #821718",
"@. c #841B1C",
"#. c #97181B",
"$. c #A4191D",
"%. c #842C2D",
"&. c #8C3839",
"*. c #A63C40",
"=. c #897B41",
"-. c #926261",
";. c #867F60",
":. c #837E79",
">. c #867572",
",. c #987A78",
"<. c #A76A6C",
"1. c #914C4D",
"2. c #A48F4E",
"3. c #87847E",
"4. c #9A9B7A",
"5. c #A69E6A",
"6. c #A59F78",
"7. c #B8AB64",
"8. c #C1B361",
"9. c #DAC968",
"0. c #687E81",
"q. c #728A8E",
"w. c #788788",
"e. c #778E91",
"r. c #7A959A",
"t. c #7D9A9E",
"y. c #6D8386",
"u. c #848583",
"i. c #8A8583",
"p. c #848F8E",
"a. c #8E8D89",
"s. c #8B8A81",
"d. c #918F8D",
"f. c #94928D",
"g. c #959687",
"h. c #8C9797",
"j. c #819A9E",
"k. c #8D9D9F",
"l. c #859090",
"z. c #959694",
"x. c #9C9C9A",
"c. c #919D9D",
"v. c #A48685",
"b. c #A8AD8F",
"n. c #A6A19C",
"m. c #A6B19F",
"M. c #BFB794",
"N. c #889EA1",
"B. c #949EA0",
"V. c #9BABAC",
"C. c #96AAAC",
"Z. c #88ACB2",
"A. c #9BAFB0",
"S. c #8FB2B8",
"D. c #9FBABE",
"F. c #98B5B9",
"G. c #8BA9AE",
"H. c #A4A5A4",
"J. c #AAA8A6",
"K. c #ACACAB",
"L. c #A6A7A5",
"P. c #ADB2AD",
"I. c #B2B0AF",
"U. c #A8AFB0",
"Y. c #A5B5B5",
"T. c #A5B9BB",
"R. c #ADBCB9",
"E. c #B4B3B2",
"W. c #BDBDBB",
"Q. c #B8B8B6",
"!. c #B1ACA8",
"~. c #C0ADAD",
"^. c #B1C0BC",
"/. c #C2C1BC",
"(. c #98BEC3",
"). c #A7C1C5",
"_. c #ADC2C5",
"`. c #A4C5CB",
"'. c #AACACE",
"]. c #A9C7CC",
"[. c #B4CCCE",
"{. c #B8C7C8",
"}. c #AECCD0",
"|. c #B3CDD1",
" X c #B4D0D3",
".X c #BAD3D5",
"XX c #BDD7D8",
"oX c #B6D4D8",
"OX c #C5C5C4",
"+X c #C8C8C6",
"@X c #CDCDCC",
"#X c #CDC5C5",
"$X c #C3DBDC",
"%X c #D3D3D3",
"&X c #D8D6D4",
"*X c #DBD9D7",
"=X c #DCDCDC",
"-X c #D6D8D8",
";X c #DEE0DF",
":X c #CDE4E4",
">X c #C7E0E0",
",X c #D1E6E7",
"<X c #D3E6E8",
"1X c #E3E4E3",
"2X c #EEEEEE",
"3X c #F4F4F4",
"4X c #F9F9F9",
"5X c #F7F7F8",
/* pixels */
"4X2X5X2X5X2X5X2X4X2X4X2X4X2X4X2X4X2X4X2X4X2X4X2X4X2X4X2X4X2X4X2X4X2X4X2X4X2X4X2X4X2X3X2X4X2X4X2X3X2X4X2X4X2X4X2X4X2X4X2X",
"3X3X3X2X4X2X4X2X4X2X4X2X3X2X3X2X4X2X3X2X4X2X4X2X3X2X4X2X3X2X4X2X3X3X3X2X3X2X5X2X3X3X3X2X3X2X3X3X3X2X3X2X4X2X3X2X3X2X3X2X",
"2X5X2X3X2X5X2X4X2X4X2X4X2X4X2X4X2X4X2X4X2X4X2X4X2X4X2X4X2X4X2X4X2X3X2X3X2X3X2X3X2X3X2X4X2X3X2X3X2X3X2X3X2X3X2X4X2X3X2X4X",
"2X3X3X3X3X3X2X3X2X3X2X3X2X3X3X3X2X3X2X3X2X5X2X3X2X5X2X3X2X3X2X3X2X3X3X3X3X3X3X3X3X3X3X3X3X3X3X3X3X3X3X3X3X3X3X3X3X3X3X3X",
"4X2X4X2X4X2X5X2X4X2X4X2X5X2X5X2X4X2X4X2X4X2X4X2X4X2X4X2X4X2X4X2X4X2X3X2X3X2X4X2X4X2X4X2X3X2X4X2X3X2X4X2X4X2X3X2X4X2X5X1X",
"3X3X2X3X2X3X3X3X2X3X2X5X2X3X3X3X3X3X2X3X2X3X2X3X2X3X2X3X3X3X2X3X3X3X3X3X3X3X3X3X2X3X3X3X3X3X3X3X3X3X3X3X3X3X2X3X3X3X3X3X",
"2X4X2X4X2X4X2X4X2X5X2X4X2X5X2X5X2X4X2X4X2X4X2X4X2X4X2X4X2X4X2X4X2X3X2X3X2X3X2X5X2X4X2X3X2X3X2X3X2X3X2X3X2X3X2X4X2X3X2X4X",
"3X2X3X2X4X2X3X2X5X2X5X2X5X2X5X2X3X2X5X2X4X2X4X2X4X2X4X2X3X2X5X2X3X3X3X3X3X2X5X2X3X2X3X3X3X2X3X3X3X2X3X3X3X3X3X2X3X3X3X2X",
"5X2X4X2X4X2X3X2X4X2X3X2X5X2X5X2X4X2X4X2X5X2X5X2X4X2X4X2X4X2X4X2X5X2X5X2X5X2X5X2X4X2X4X2X4X2X4X2X4X2X3X3X3X3X3X3X3X3X3X2X",
"2X4X2X4X2X4X2X4X2X4X2X4X2X4X2X5X2X3X2X4X2X4X2X5X2X4X2X4X2X5X2X3X2X4X2X5X2X5X2X5X2X4X2X3X2X4X2X3X2X4X2X3X2X4X2X3X2X3X2X4X",
"2X3X2X3X2X4X2X4X2X3X2X4X2X4X2X4X2X4X2X3X2X5X2X4X2X3X2X4X2X5X2X4X2X5X2X5X2X5X2X5X2X3X2X4X2X3X2X4X3X3X2X3X2X3X3X3X2X3X2X3X",
"4X2X4X2X4X2X4X2X4X2X4X2X4X2X4X2X4X2X4X2X4X2X4X2X4X2X4X2X4X3X4X2X4X2X4X2X4X2X5X2X4X2X4X2X4X2X4X2X3X2X4X2X4X2X3X2X4X2X4X2X",
"4X2X3X2X4X2X3X2X3X2X3X3X3X2X5X2X3X2X3X2X3X3X3X2X3X3X2XOXn.a.L.%X3X3X3X2X3X2X3X3X3X2X3X3X3X3X3X2X3X3X3X3X3X2X3X2X3X3X3X3X",
"2X4X2X4X2X4X2X4X2X4X2X4X2X4X2X4X2X4X2X4X2X5X2X5X2X&X' 5 : ; ; 7 d.3X2X5X2X4X2X4X2X4X2X4X2X4X2X4X2X4X2X3X2X4X2X4X2X4X2X4X",
"3X2X4X2X3X2X4X2X3X2X5X2X3X2X3X2X3X2X3X3X3X2X3X3X@XH y a M M a y ; i.3X2X3X3X3X2X3X2X3X2X3X2X3X2X3X3X3X3X3X3X3X3X3X3X3X2X",
"4X2X4X2X4X2X4X2X4X2X4X2X4X2X4X2X4X2X4X2X5X2X5X1XQ : s V V N V h a i I.2X4X2X4X2X4X2X4X2X4X2X4X2X3X2X3X2X3X2X3X2X3X2X3X2X",
"2X3X2X3X2X3X2X3X2X4X2X3X2X4X2X3X2X3X2X4X3X3X3XJ.u V M V s h s M m b Y 1X2X3X2X4X2X3X2X4X2X4X2X4X2X3X2X3X2X3X2X3X2X5X2X3X",
"2X4X2X4X2X4X2X4X2X4X2X4X2X4X2X4X2X4X2X4X2X4X1XR y N u u y y = s B Z m !.2X4X2X4X2X4X2X4X2X3X2X4X2X4X2X4X2X4X2X4X2X4X2X4X",
"4X2X4X2X4X2X5X2X4X2X4X2X4X2X4X2X4X2X4X2X5X2X&Xg y u y @ + + + % j M m ! 3X2X4X2X4X2X5X2X4X2X4X2X4X2X4X2X4X2X5X2X4X2X4X2X",
"4X2X4X2X4X2X4X2X4X2X3X2X4X2X4X2X4X2X3X2X5X3Xn.p h : @ 4 P ( S # : s : 7 &X2X4X2X3X2X5X2X4X2X4X2X4X2X4X2X4X2X5X2X4X2X4X2X",
"2X4X2X4X2X4X2X4X2X4X2X4X2X4X2X4X2X4X2X4X2X4X:.u h % K S.`.].(.X.& @ @ 3 /.4X2X3X2X4X2X4X2X3X2X4X2X4X2X4X2X4X2X4X2X4X2X4X",
"2X3X2X3X3X3X2X3X2X3X2X3X2X3X2X3X2X3X3X3X2X3XQ a M : ..'.|.|.|.]._   . g @X4X2X3X2X3X3X3X2X3X2X3X2X3X2X3X2X3X3X3X2X3X3X3X",
"4X2X4X2X4X2X4X2X4X2X4X2X4X2X4X2X4X2X4X2X4X1XY a h = X.|.|.|.|.|.D.D 3 ; n.2X4X2X4X2X4X2X4X2X4X2X4X2X4X2X4X2X4X2X4X2X4X2X",
"2X5X2X3X2X4X2X3X2X5X2X3X3X3X2X3X3X3X2X2X*X2XY m m = I |.|.|.|.|.[.). .k ! 3X3X3X3X3X2X3X3X3X2X3X2X3X3X3X2X3X3X3X2X5X2X2X",
"2X4X2X4X2X4X2X4X2X4X2X4X2X4X2X4X2X4X2X2Xw.L.n = p $ ( ).N.N.[. X[. Xw.w.R 2X2X4X2X4X2X4X2X4X2X4X2X4X2X4X2X4X2X4X2X4X2X4X",
"4X2X3X2X3X2X4X2X5X2X3X2X3X2X3X2X3X2X5X;X ._ v . @ 3 ) k - ;  ._. X Xw.) Y &X4X2X4X2X3X2X4X2X3X2X4X2X4X2X3X2X4X2X4X2X3X2X",
"4X2X5X2X4X2X4X2X4X2X3X2X4X2X4X2X4X2X4X1Xp.X...D   D G.G b b & [ }.`.K & n &X4X2X4X2X4X2X4X2X4X2X4X2X3X2X4X2X3X2X3X2X4X2X",
"2X4X2X4X2X3X2X4X2X4X2X5X2X4X2X5X2X5X2X3Xh.q.q.0.3 ( }.b.9.M.n 7 A.F.n Y :.2X2X4X2X4X2X4X2X3X2X4X2X5X2X4X2X4X2X4X2X4X2X4X",
"2X5X2X3X2X3X2X4X2X5X2X5X2X3X2X3X2X5X2X4XP...q.) D ` oXP.9.5./ A  .e./ ~ J.2X3X4X2X2X2X3X2X5X2X3X2X3X2X4X2X3X2X4X2X4X2X3X",
"4X2X4X2X4X2X4X2X4X2X4X2X4X2X5X2X4X2X4X2X*Xw.e._ ( y.XX X4.7.8.5.Y.Y.7.6.;X2X5X1X/.W.3X2X4X2X4X2X4X2X4X2X4X2X4X2X4X2X4X2X",
"3X2X2X3X3X3X3X2X3X2X5X2X3X3X3X3X3X2X3X3X2XB.r.q.q.t.XX$X Xz.4.^.>X^.J.P.2X3X2XQ.g./.3X2X3X2X3X3X3X2X3X2X5X2X3X2X3X2X3X2X",
"2X4X2X4X2X4X2X4X2X4X2X5X2X5X2X4X2X5X2X4X2X;Xe.t.Z.S..X$X:X,X,X:X>XF.^._.-X4X+Xg.3.*X2X4X2X4X2X4X2X4X2X4X2X4X2X4X2X4X2X4X",
"3X3X3X2X3X2X3X2X4X2X3X2X3X2X3X2X3X2X3X2X5X3X=Xz.G.(.|.XX>X:X:X:XXXA.T._.&X2XJ.' z.1X3X2X3X3X3X2X3X2X3X2X4X2X3X2X3X2X3X3X",
"4X2X4X2X4X2X4X2X4X2X4X2X4X2X4X2X5X2X4X2X4X2X4X%XN.(.}.XX$XU.B.Y..X_.|.R.<X@X>.' E.2X4X2X4X2X4X2X4X2X4X2X4X2X4X2X4X2X4X2X",
"2X3X2X5X2X4X2X3X2X4X2X4X2X5X2X4X2X5X2X5X2X3X2X3XV.G.`.oX$XU.^.T.B.h.C.U.=Xn.{ f.&X4X2X3X2X3X2X4X2X4X2X3X2X4X2X5X2X3X2X3X",
"2X5X2X4X2X4X2X4X2X4X2X4X2X4X2X4X2X5X2X5X2X4X2X4X=XN.S.]..X|..X$X X_.B.W.@Xo.3.+X2X3X2X4X2X4X2X5X2X4X2X4X2X4X2X4X2X4X2X4X",
"4X2X4X2X4X2X4X2X4X2X4X2X4X2X4X2X5X2X5X2X5X2X5X2X3XO._ Z.]. XoX.X|.C.H.;Xx.| !.1X4X2X4X2X4X2X4X2X4X2X3X2X4X2X4X2X4X2X4X2X",
"4X2X4X2X3X2X4X2X4X2X4X2X3X2X4X2X5X2X5X2X5X2X5X2XI.F F S ` q.N.j.q.H.2XOX' d.;X2X4X2X3X2X5X2X4X2X5X2X4X2X5X2X3X2X4X2X4X2X",
"2X4X2X4X2X4X2X4X2X4X2X4X2X4X2X4X2X5X2X5X2X5X2X2XF X 9 6 & * 2 v E.3X1Xi.' @X2X5X2X4X2X4X2X4X2X4X2X4X2X4X2X4X2X4X2X4X2X4X",
"2X3X2X3X2X5X2X3X2X3X2X4X2X3X2X3X3X5X2X5X2X3X3XW.o X 1 J %.&.x 2 z.%XL.U z.2X3X3X2X3X2X3X3X3X2X3X3X3X2X3X2X3X3X3X2X3X3X3X",
"4X2X4X2X4X2X4X2X4X2X4X2X4X2X4X2X4X2X4X2X5X2X4Xu.o , 5 t &.,.r & L a.L Q &X2X4X2X4X2X4X2X4X2X4X2X4X2X4X2X4X2X4X2X4X2X4X2X",
"3X3X2X3X2X3X2X3X2X3X3X3X2X3X2X3X2X5X3X5X3X2X2X{ , < w r l z e o C / 7 g.3X3X2X3X3X3X3X3X2X3X2X3X2X3X2X4X2X3X2X3X2X3X2X3X",
"2X5X2X4X2X4X2X4X2X4X2X4X2X4X2X4X2X5X2X4X2X5X=XI o , q +.t r r 2 C =.b /.2X4X2X4X2X4X2X4X2X4X2X4X2X4X2X4X2X4X2X4X2X4X2X4X",
"5X2X4X2X4X2X3X2X4X2X3X2X4X2X4X2X5X2X5X2X5X2X1Xk 2 9 q e e e q ( ^ 2.3.Q.3X2X3X2X3X2X3X2X3X2X4X2X4X2X3X2X4X2X3X2X4X2X5X2X",
"4X2X4X2X4X2X4X2X4X2X4X2X3X2X4X2X5X2X5X2X5X2X;Xv ) _.F O < * 0 V.3.2.7./.4X2X5X2X4X2X4X2X4X2X3X2X4X2X3X2X4X2X4X2X4X2X5X2X",
"2X3X2X5X2X3X2X4X2X3X2X4X2X4X2X4X2X5X2X5X2X5X=XF  ..Xu.O.W l [ p.l.+X&X4X2X4X2X4X2X4X2X3X2X4X2X4X2X4X2X4X2X4X2X3X2X5X2X4X",
"2X3X2X3X2X4X2X3X2X4X2X4X2X3X2X3X2X5X2X5X2X5X2X{ ( D.E z n f w T O.1X3X3X2X4X2X3X2X3X2X4X2X3X2X4X2X4X2X3X2X3X2X4X2X3X2X4X",
"4X2X4X2X4X2X4X2X4X2X4X2X4X2X4X2X5X2X5X2X5X2X5X[ T 0.l r G 2 * T O.;X4X2X4X2X4X2X4X2X4X2X4X2X4X2X4X2X4X2X4X2X4X2X4X2X3X2X",
"5X2X3X3X3X2X3X2X3X2X3X3X3X2X3X2X3X2X3X3X3X2X3X3.c.E.9 1 [ 8 , x.K.2X3X2X3X3X3X2X3X2X4X2X3X2X3X3X3X2X3X2X5X2X3X3X3X2X3X3X",
"2X4X2X4X2X4X2X4X2X4X2X4X2X4X2X4X2X4X2X4X2X4X2X!.~.#Xd q T d e v.;X3X2X4X2X4X2X4X2X4X2X4X2X4X2X4X2X4X2X4X2X4X2X4X2X4X2X4X",
"3X2X5X2X3X2X3X3X3X2X4X2X3X2X3X3X3X2X5X2X3X3X5X1X2X~.@.#.-.%.#.<.3X3X3X2X3X3X3X2X3X2X3X2X5X2X3X2X3X2X5X2X5X2X3X2X3X2X3X2X",
"4X2X4X2X4X2X4X2X4X2X4X2X4X2X4X2X4X2X4X2X3X2X3X2X3Xv.@.$.1.%.$.*.&X;X3X2X3X2X4X2X4X2X4X2X4X2X4X2X4X2X4X2X4X2X4X2X4X2X4X2X",
"2X4X2X3X2X5X2X5X2X4X2X3X2X4X2X3X3X3X3X3X2X3X1X@XI.>.r @.z r t W z.J.P.@X;X3X3X3X2X3X2X4X2X3X2X5X2X3X2X4X2X4X2X3X2X5X2X4X",
"2X4X2X4X2X4X2X5X2X3X2X4X2X4X2X5X2X3X2X4X2X4X1X*XW.I.f.3.d.i.3.m.J.Q.^.;X1X4X2X3X2X4X2X4X2X5X2X3X2X4X2X3X2X4X2X4X2X5X2X4X",
"4X2X4X2X4X2X4X2X4X2X4X2X4X2X5X2X3X2X3X2X3X2X4X2X5X2X3X1X2X1X2X1X2X2X3X2X4X2X4X2X5X2X4X2X4X2X5X2X4X2X4X2X4X2X4X2X4X2X4X2X",
"4X2X3X2X4X2X3X2X4X2X4X2X3X2X4X2X5X2X3X3X3X3X3X2X3X3X5X2X5X3X3X3X4X2X3X3X3X2X3X3X4X2X5X2X4X2X5X2X4X2X4X2X3X2X4X2X4X2X3X2X",
"2X4X2X4X2X4X2X4X2X4X2X4X2X4X2X4X2X3X2X4X2X4X2X3X2X3X2X3X2X3X2X3X2X4X2X5X2X4X2X4X2X5X2X5X2X4X2X5X2X4X2X4X2X4X2X4X2X4X2X4X",
"2X3X2X3X3X3X2X3X2X3X2X3X2X3X2X5X3X3X3X3X2X3X3X3X3X3X3X3X3X3X3X3X3X3X2X3X2X3X2X3X3X3X2X3X2X3X3X3X2X3X2X3X2X3X2X5X2X3X3X3X",
"4X2X4X2X4X2X4X2X4X2X4X2X4X2X4X2X3X2X3X2X4X2X3X2X3X2X4X2X3X2X3X2X4X2X4X2X4X2X5X2X5X2X4X2X4X2X5X2X4X2X4X2X4X2X4X2X4X2X4X2X",
"3X3X2X3X2X3X2X3X2X3X3X3X3X3X2X3X3X3X3X3X2X3X3X3X3X3X3X3X2X3X3X3X3X3X2X3X3X3X2X3X2X3X3X3X2X3X3X3X2X3X3X3X3X3X2X3X2X3X3X2X"
};
