/* XPM */
static char *_72618cfd6d44a2b97e1225473e99350FBCptGqxWbtIF8vG[] = {
/* columns rows colors chars-per-pixel */
"60 60 212 2 ",
"   c #1B0200",
".  c #1F0C00",
"X  c #170200",
"o  c #210400",
"O  c #241406",
"+  c #2B170B",
"@  c #2F1B11",
"#  c #321E12",
"$  c #183B0C",
"%  c #213D0C",
"&  c #312D18",
"*  c #203910",
"=  c #422E25",
"-  c #463329",
";  c #463730",
":  c #034C03",
">  c #045C03",
",  c #0D5C04",
"<  c #15520D",
"1  c #1A5A16",
"2  c #1C430A",
"3  c #244E1F",
"4  c #285718",
"5  c #076901",
"6  c #136E0A",
"7  c #16630F",
"8  c #027400",
"9  c #027B00",
"0  c #097F00",
"q  c #14730B",
"w  c #187D0E",
"e  c #196516",
"r  c #1C7414",
"t  c #1E7915",
"y  c #27760D",
"u  c #26671F",
"i  c #246A1C",
"p  c #23751B",
"a  c #237C1B",
"s  c #247919",
"d  c #317D1C",
"f  c #2D5C28",
"g  c #31542D",
"h  c #3E4F37",
"j  c #345130",
"k  c #256621",
"l  c #2A7C22",
"z  c #377735",
"x  c #376A32",
"c  c #407F0E",
"v  c #53433B",
"b  c #42773C",
"n  c #58574E",
"m  c #446640",
"M  c #52694E",
"N  c #55764B",
"B  c #567653",
"V  c #746061",
"C  c #807472",
"Z  c #028300",
"A  c #0A8501",
"S  c #0D8C03",
"D  c #128C05",
"F  c #14820B",
"G  c #148E09",
"H  c #188D0D",
"J  c #0D9302",
"K  c #119206",
"L  c #139008",
"P  c #19980E",
"I  c #1E8D14",
"U  c #1B8012",
"Y  c #1B9111",
"T  c #1C9A12",
"R  c #258D05",
"E  c #259103",
"W  c #389404",
"Q  c #379304",
"!  c #25851B",
"~  c #258C1B",
"^  c #28811F",
"/  c #3F801D",
"(  c #259B1A",
")  c #27971D",
"_  c #388A0E",
"`  c #25A119",
"'  c #2E9D23",
"]  c #35922B",
"[  c #339827",
"{  c #3D8035",
"}  c #3D9B32",
"|  c #3E9734",
" . c #318728",
".. c #31A125",
"X. c #39A42C",
"o. c #3EA332",
"O. c #45800F",
"+. c #4A9905",
"@. c #599D06",
"#. c #558A17",
"$. c #4E8812",
"%. c #659808",
"&. c #749A07",
"*. c #689617",
"=. c #5AA009",
"-. c #78AA01",
";. c #6AA910",
":. c #71AD0F",
">. c #468E3C",
",. c #429D33",
"<. c #469F3A",
"1. c #42AA35",
"2. c #49A53E",
"3. c #4AAE3D",
"4. c #48A938",
"5. c #49B03B",
"6. c #5EB63C",
"7. c #6EB53E",
"8. c #468A40",
"9. c #5B875B",
"0. c #599553",
"q. c #669A48",
"w. c #57A947",
"e. c #4FB441",
"r. c #53B543",
"t. c #57BA48",
"y. c #5CBC4B",
"u. c #5BB946",
"i. c #5FBF50",
"p. c #76BE4C",
"a. c #7DA350",
"s. c #66B74B",
"d. c #71B06C",
"f. c #7AB376",
"g. c #72926E",
"h. c #5DC04E",
"j. c #6DC24B",
"k. c #7CC94B",
"l. c #70C145",
"z. c #66C656",
"x. c #7FC953",
"c. c #85A612",
"v. c #86BD21",
"b. c #82C53E",
"n. c #9CC531",
"m. c #9DD232",
"M. c #97CD2A",
"N. c #9AB467",
"B. c #89BE69",
"V. c #A7B96F",
"C. c #88CB48",
"Z. c #93D34F",
"A. c #94D653",
"S. c #8ECD4F",
"D. c #A7DC5B",
"F. c #9FE151",
"G. c #A0E159",
"H. c #BFD07F",
"J. c #A5D86B",
"K. c #938F8C",
"L. c #9A9590",
"P. c #8C9D89",
"I. c #8AAD89",
"U. c #93B98F",
"Y. c #9BBD98",
"T. c #A1B99F",
"R. c #9EBBA0",
"E. c #AAA4A0",
"W. c #BAADAF",
"Q. c #AAB7AA",
"!. c #BCB6B5",
"~. c #B6B5B1",
"^. c #90C18C",
"/. c #98C393",
"(. c #ABD083",
"). c #A0C19E",
"_. c #BCDB86",
"`. c #B4E080",
"'. c #B0C6AD",
"]. c #B8D3AF",
"[. c #B7CAB6",
"{. c #BDD7BC",
"}. c #A8CBA7",
"|. c #CBD9BB",
" X c #D5E8B5",
".X c #CCE7A9",
"XX c #C9D6C8",
"oX c #DBDFCE",
"OX c #D4DCD4",
"+X c #D2D5D1",
"@X c #CCCACA",
"#X c #E0DEDF",
"$X c #CDE3CB",
"%X c #DEF2C5",
"&X c #DDE3DC",
"*X c #D6E2C7",
"=X c #E3E6DA",
"-X c #E9F6D9",
";X c #E5E5E5",
":X c #E4EAE4",
">X c #ECECEC",
",X c #E8E8E7",
"<X c #EDF2ED",
"1X c #EFEDF2",
"2X c #F1EFF4",
"3X c #EFF0F0",
"4X c #F4F3F5",
"5X c #F5F8F6",
"6X c #F5F2F9",
"7X c #FAF5FA",
"8X c #FEFEFE",
"9X c #F4F9E9",
/* pixels */
">X>X>X>X8X8X8X8X>X>X>X>X8X8X8X8X>X>X>X>X8X8X8X8X>X>X>X>X8X8X8X8X>X>X>X>X8X8X8X8X>X>X>X>X8X8X8X8X>X>X>X>X8X8X8X8X>X>X>X>X",
">X>X>X>X8X8X8X8X>X>X>X>X8X8X8X8X>X>X>X>X8X8X8X8X>X>X>X>X8X8X8X8X>X>X>X>X8X8X8X8X>X>X>X>X8X8X8X8X>X>X>X>X8X8X8X8X>X>X>X>X",
">X>X>X>X8X8X8X8X>X>X>X>X8X8X8X8X>X>X>X>X8X8X8X8X>X>X>X>X8X8X8X8X>X>X>X>X8X8X8X8X>X>X>X>X8X8X8X8X>X>X>X>X8X8X8X8X>X>X>X>X",
">X>X>X>X8X8X8X8X>X>X>X>X8X8X8X8X>X>X>X>X8X8X8X8X>X>X>X>X8X8X8X8X>X>X>X>X8X8X8X8X>X>X>X>X8X8X8X8X>X>X>X>X8X8X8X8X>X>X>X>X",
"8X8X8X8X>X>X>X>X8X8X8X8X>X>X>X>X8X8X8X8X>X>X>X>X8X8X8X8X>X>X>X>X8X8X8X8X>X>X>X>X8X8X8X8X>X>X>X>X8X8X8X8X>X>X>X>X8X8X8X8X",
"8X8X8X8X>X>X>X>X8X8X8X8X>X>X>X>X8X8X8X8X>X>X>X>X8X8X8X8X>X>X>X4X8X8X8X8X>X>X>X>X8X8X8X8X>X>X>X>X8X8X8X8X>X>X>X>X8X8X8X8X",
"8X8X8X8X>X>X>X>X8X8X8X8X>X>X>X>X8X8X8X8X>X>X>X>X8X8X8X8X>X>X1X X9X8X8X8X>X>X>X>X8X8X8X8X>X>X>X>X8X8X8X8X>X>X>X>X8X8X8X8X",
"8X8X8X8X>X>X>X>X8X8X8X8X>X>X>X>X8X8X8X8X>X>X>X>X8X8X8X8X>X2X6Xv.H.8X8X8X>X>X>X>X8X8X8X8X>X>X>X>X8X8X8X8X>X>X>X>X8X8X8X8X",
">X>X>X>X8X8X8X8X>X>X>X>X8X8X8X8X>X>X>X>X8X8X8X8X>X>X>X2X7X8X XM.c.=X1X>X8X8X8X8X>X>X>X>X8X8X8X8X>X>X>X>X8X8X8X8X>X>X>X>X",
">X>X>X>X8X8X8X8X>X>X>X>X8X8X8X8X>X>X>X>X8X8X8X8X>X,X,X>X8X9XG.m.&.V.2X,X8X8X8X8X>X>X>X>X8X8X8X8X>X>X>X>X8X8X8X8X>X>X>X>X",
">X>X>X>X8X8X8X8X>X>X>X>X8X8X8X8X>X>X>X>X8X8X8X8X>X>X,X>X8X_.F.M.-.&.oX1X8X8X8X8X>X>X>X>X8X8X8X8X>X>X>X>X8X8X8X8X>X>X>X>X",
">X>X>X>X8X8X8X8X>X>X>X>X8X8X8X8X>X>X>X>X8X8X8X8X1X>X>X2X-XZ.G.v.c.%.N.2X5X8X8X8X>X>X>X>X8X8X8X8X>X>X>X>X8X8X8X8X>X>X>X>X",
"8X8X8X8X>X>X>X>X8X8X8X8X>X>X>X>X8X8X8X8X>X>X>X>X8X8X8X8XH.b.F.:.-.;.*.=X4X>X>X>X8X8X8X8X>X>X>X>X8X8X8X8X>X>X>X>X8X8X8X8X",
"8X8X8X8X>X>X>X>X8X8X8X8X>X>X>X>X8X8X8X8X>X>X>X>X8X8X8X%XZ.A.C.:.=.*.$.N.4X,X>X>X8X8X8X8X>X>X>X>X8X8X8X8X>X>X>X>X8X8X8X8X",
"8X8X8X8X>X>X>X>X8X8X8X8X>X>X>X>X8X8X8X8X>X>X>X>X8X8X8XJ.x.A.k.=.@.@.#.#.|.2X>X>X8X8X8X8X>X>X>X>X8X8X8X8X>X>X>X>X8X8X8X8X",
"8X8X8X8X>X>X>X>X8X8X8X8X>X>X>X>X8X8X8X8X>X>X>X<X5X8X.Xk.x.k.l.+.+.+.$.c a.2X>X>X8X8X8X8X>X>X>X>X8X8X8X8X>X>X>X>X8X8X8X8X",
">X>X>X>X8X8X8X8X>X>X>X>X8X8X8X8X>X>X>X>X8X8X8X7X2X=XS.p.p.p.6.Q W W _ c c XX8X5X3X>X>X>X8X8X8X8X>X>X>X>X8X8X8X8X>X>X>X>X",
">X>X>X>X8X8X8X8X>X>X>X>X8X8X8X8X>X>X>X>X8X8X8X8X4X(.7.s.u.u.4.H E E R d y q.8X8X>X>X>X>X8X8X8X8X>X>X>X>X8X8X8X8X>X>X>X>X",
">X>X>X>X8X8X8X8X>X>X>X>X8X8X8X8X>X>X>X>X8X8X8X8X*X7.w.r.r.u.1.D L G D a d y ].8X>X>X>X>X8X8X8X8X>X>X>X>X8X8X8X8X>X>X>X>X",
">X>X>X>X8X8X8X8X>X>X>X>X8X8X8X8X>X>X>X>X8X8X8X8XB.4.2.6.3.3.' S S S J U l r >.5X>X>X>X>X8X8X8X8X>X>X>X>X8X8X8X8X>X>X>X>X",
"8X8X8X8X>X>X>X>X8X8X8X8X>X>X>X>X8X8X8X8X>X>X6X].} w.3.5.4.e.' Z S S J U t a q Y.8X5X8X8X>X>X>X>X8X8X8X8X>X>X>X>X8X8X8X8X",
"8X8X8X8X>X>X>X>X8X8X8X8X>X>X>X>X8X8X8X8X>X>X;Xw.} <.1.1.1.4.( S L J S S p p r  .5X8X8X8X>X>X>X>X8X8X8X8X>X>X>X>X8X8X8X8X",
"8X8X8X8X>X>X>X>X8X8X8X8X>X>X>X>X8X8X8X8X,X4X/.[ | } o.o.o.o.P Z S Z S L t t a 6 /.8X8X8X>X>X>X>X8X8X8X8X>X>X>X>X8X8X8X8X",
"8X8X8X8X>X>X>X>X8X8X8X8X>X>X>X>X8X8X8X8X4X&X] ] | } o.o.o.} ( ( ..5.e.t. .t t r l 2X8X5X>X>X>X>X8X8X8X8X>X>X>X>X8X8X8X8X",
">X>X>X>X8X8X8X8X>X>X>X>X8X8X8X8X>X>X>X>X8X$X9 F ! [ ..( T J ` z.z.z.h.h.] r t s , P.8X>X8X8X8X8X>X>X>X>X8X8X8X8X>X>X>X>X",
">X>X>X>X8X8X8X8X>X>X>X>X8X8X8X8X>X,X>X>X8X{.8 9 S K J J J J J P 5.z.t.y.] r t t 6 g ,X2X8X8X8X8X>X>X>X>X8X8X8X8X>X>X>X>X",
">X>X>X>X8X8X8X8X>X>X>X>X8X8X8X8X>X>X>X,X8X}.8 A S J J J J J J J K 1.y.t.} r r t r 3 OX2X8X8X8X8X>X>X>X>X8X8X8X8X>X>X>X>X",
">X>X>X>X8X8X8X8X>X>X>X>X8X8X8X8X>X>X>X>X8X^.8 S S K J J J J K K J S ..t.} r t t 6 f ,X>X8X8X8X8X>X>X>X>X8X8X8X8X>X>X>X>X",
"8X8X8X8X>X>X>X>X8X8X8X8X>X>X>X>X8X8X8X5X7Xd.Z S S K L J J J J K K K S ( } r r p q x 7X8X>X>X>X>X8X8X8X8X>X>X>X>X8X8X8X8X",
"8X8X8X8X>X>X>X>X8X8X8X8X>X>X>X>X8X8X8X5X7Xf.9 S S G G K J J K K K K K K Y p r r 6 z 8X8X>X>X>X>X8X8X8X8X>X>X>X>X8X8X8X8X",
"8X8X8X8X>X>X>X>X8X8X8X8X>X>X>X>X8X8X8X8X7X).9 A D G G L K J K K K L G ( ! ^ a t 6 b 8X8X>X>X>X>X8X8X8X8X>X>X>X>X8X8X8X8X",
"8X8X8X8X>X>X>X>X8X8X8X8X>X>X>X>X8X8X8X5X7X[.5 A D G G G G J K L Y ~ ~ ~ ! a a ^ q 8.8X8X>X>X>X>X8X8X8X8X>X>X>X>X8X8X8X8X",
">X>X>X>X8X8X8X8X>X>X>X>X8X8X8X8X>X>X>X>X8X:Xq 0 D G G D K H R ~ ) ~ ~ ~ ! a a ! r B.6X>X8X8X8X8X>X>X>X>X8X8X8X8X>X>X>X>X",
">X>X>X>X8X8X8X8X>X>X>X>X8X8X8X8X>X>X>X>X8X5Xp 5 G G I U ! ! ! ~ ~ ~ ~ ! a a s e m ,X>X>X8X8X8X8X>X>X>X>X8X8X8X8X>X>X>X>X",
">X>X>X>X8X8X8X8X>X>X>X>X8X8X8X8X>X>X>X>X8X8XY.5 w ~ ! ! ! ! ! ~ ~ ~ ~ ! s p u 1 !.6X,X>X8X8X8X8X>X>X>X>X8X8X8X8X>X>X>X>X",
">X>X>X>X8X8X8X8X>X>X>X>X8X8X8X8X>X>X>X>X5X8X8X'.7 t a ! ! ! ! ! ~ ~ ! t i k < g.8X,X1X>X8X8X8X8X>X>X>X>X8X8X8X8X>X>X>X>X",
"8X8X8X8X>X>X>X>X8X8X8X8X>X>X>X>X8X8X8X8X>X>X,X8XXXp r a a a a q q t p u u < f oX8X8X8X8X>X>X>X1X8X8X8X8X>X>X>X>X8X8X8X8X",
"8X8X8X8X>X>X>X>X8X8X8X8X>X>X>X>X8X8X8X8X>X>X>X,X8X=X{ q l a s r q 5 i 1 < N XX4X8X8X8X8X>X,X>X>X8X8X8X8X>X>X>X>X8X8X8X8X",
"8X8X8X8X>X>X>X>X8X8X8X8X>X>X>X>X8X8X8X8X>X>X>X>X8X8X5X0.6 r p s q 8 , b Q.2X3X>X8X8X8X8X>X>X,X>X8X8X8X8X>X>X>X>X8X8X8X8X",
"8X8X8X8X>X>X>X>X8X8X8X8X>X>X>X>X8X8X8X8X>X>X>X>X8X5X8X7X).).N % 2 1 U.4X5X,X>X>X8X8X8X8X>X>X>X<X8X8X8X8X>X>X>X>X8X8X8X8X",
">X>X>X>X8X8X8X8X>X>X>X>X8X8X8X8X>X>X>X>X8X8X8X8X>X>X>X>X8X8XW.  o V 8X>X7X8X8X8X>X>X>X>X8X8X8X8X>X>X>X>X8X8X8X8X>X>X>X>X",
">X>X>X>X8X8X8X8X>X>X>X>X8X8X8X8X>X>X>X>X8X8X8X8X>X>X>X>X7X8X=X#   L.5X,X8X8X8X8X>X,X>X>X8X8X8X8X>X>X>X>X8X8X8X8X>X>X>X>X",
">X>X>X>X8X8X8X8X>X>X>X>X8X8X8X8X>X>X>X>X8X8X8X8X>X>X>X>X8X8X5X;   ~.4X>X8X8X8X8X>X>X>X>X8X8X8X8X>X>X>X>X8X8X8X8X>X>X>X>X",
">X>X>X>X8X8X8X8X>X>X>X>X8X8X8X8X>X>X>X>X8X8X8X8X>X>X>X>X8X8X8Xv . @X5X>X8X8X8X8X>X>X>X>X8X8X8X8X>X>X>X>X8X8X8X8X>X>X>X>X",
"8X8X8X8X>X>X>X>X8X8X8X8X>X>X>X>X8X8X8X8X>X>X>X>X8X8X8X8X1X,X3Xv O ;X8X7X>X>X>X>X8X8X8X8X>X>X>X>X8X8X8X8X>X>X>X>X8X8X8X8X",
"8X8X8X8X>X>X>X>X8X8X8X8X>X>X>X>X8X8X8X8X>X>X>X>X8X8X8X8X>X>X3X; + >X8X8X>X>X>X>X8X8X8X8X>X>X>X>X8X8X8X8X>X>X>X>X8X8X8X8X",
"8X8X8X8X>X>X>X>X8X8X8X8X>X>X>X>X8X8X8X8X>X>X>X>X8X8X8X8X>X,X>X- @ 7X8X8X1X>X>X>X8X8X8X8X>X>X>X>X8X8X8X8X>X>X>X>X8X8X8X8X",
"8X8X8X8X>X>X>X>X8X8X8X8X>X>X>X>X8X8X8X8X>X>X>X>X8X8X8X8X>X1X;X= + Q.:X:XOX&X,X>X8X8X8X8X>X>X>X>X8X8X8X8X>X>X>X>X8X8X8X8X",
">X>X>X>X8X8X8X8X>X>X>X>X8X8X8X8X>X>X>X>X8X8X8X8X>X>X>X>X8X8X5X= . g M 9.R.[.5X8X>X>X>X>X8X8X8X8X>X>X>X>X8X8X8X8X>X>X>X>X",
">X>X>X>X8X8X8X8X>X>X>X>X8X8X8X8X>X>X>X>X8X8X8X8X>X>X>X>X+X4X+X& O e x 1 z }.8X8X>X>X>X>X8X8X8X8X>X>X>X>X8X8X8X8X>X>X>X>X",
">X>X>X>X8X8X8X8X>X>X>X>X8X8X8X8X>X>X>X>X8X8X8X8X>X>X>XK.n B 9.$ * 1 h h 7 :X8X8X>X>X>X>X8X8X8X8X>X>X>X>X8X8X8X8X>X>X>X>X",
">X>X>X>X8X8X8X8X>X>X>X>X8X8X8X8X>X>X>X>X8X8X8X8X>X>X4X~.V N 5 : : R.!.E.XX8X8X8X>X>X>X>X8X8X8X8X>X>X>X>X8X8X8X8X>X>X>X>X",
"8X8X8X8X>X>X>X>X8X8X8X8X>X>X>X>X8X8X8X8X>X>X>X>X8X8X8X8X#XOXI.Y.{.8X8X8X5X>X>X1X8X8X8X8X>X>X>X>X8X8X8X8X>X>X>X>X8X8X8X8X",
"8X8X8X8X>X>X>X>X8X8X8X8X>X>X>X>X8X8X8X8X>X>X>X>X8X8X8X8X2X2X7X7X8X8X8X8X>X>X,X,X8X8X8X8X>X>X>X>X8X8X8X8X>X>X>X>X8X8X8X8X",
"8X8X8X8X>X>X>X>X8X8X8X8X>X>X>X>X8X8X8X8X>X>X>X>X8X8X8X8X>X>X>X>X8X8X8X8X1X,X>X1X8X8X8X8X>X>X>X>X8X8X8X8X>X>X>X>X8X8X8X8X",
"8X8X8X8X>X>X>X>X8X8X8X8X>X>X>X>X8X8X8X8X>X>X>X>X8X8X8X8X>X>X>X>X8X8X8X8X>X1X,X<X8X8X8X8X>X>X>X>X8X8X8X8X>X>X>X>X8X8X8X8X",
">X>X>X>X8X8X8X8X>X>X>X>X8X8X8X8X>X>X>X>X8X8X8X8X>X>X>X>X8X8X8X8X>X>X>X1X8X8X8X8X>X>X>X>X8X8X8X8X>X>X>X>X8X8X8X8X>X>X>X>X",
">X>X>X>X8X8X8X8X>X>X>X>X8X8X8X8X>X>X>X>X8X8X8X8X>X>X>X>X8X8X8X8X>X;X,X>X8X8X8X8X>X>X>X>X8X8X8X8X>X>X>X>X8X8X8X8X>X>X>X>X",
">X>X>X>X8X8X8X8X>X>X>X>X8X8X8X8X>X>X>X>X8X8X8X8X>X>X>X>X8X8X8X8X>X>X>X>X8X8X8X8X>X>X>X>X8X8X8X8X>X>X>X>X8X8X8X8X>X>X>X>X",
">X>X>X>X8X8X8X8X>X>X>X>X8X8X8X8X>X>X>X>X8X8X8X8X>X>X>X>X8X8X8X8X>X>X>X>X8X8X8X8X>X>X>X>X8X8X8X8X>X>X>X>X8X8X8X8X>X>X>X>X"
};
