/* XPM */
static char *c0b9be83a05448b5cd1bd80448a227107ffVx5fRKxfItvc1[] = {
/* columns rows colors chars-per-pixel */
"64 64 167 2 ",
"   c None",
".  c #37280F",
"X  c #38280F",
"o  c #3A2A11",
"O  c #3C271A",
"+  c #3E2922",
"@  c #482F1F",
"#  c #483319",
"$  c #452525",
"%  c #482626",
"&  c #452C24",
"*  c #452729",
"=  c #452A2A",
"-  c #4C2D2D",
";  c #502F2F",
":  c #462F30",
">  c #4E343E",
",  c #543333",
"<  c #5B3535",
"1  c #5D3A3A",
"2  c #633737",
"3  c #633B3B",
"4  c #693D3D",
"5  c #713E3E",
"6  c #654B23",
"7  c #694F25",
"8  c #684D28",
"9  c #6D5326",
"0  c #6D5129",
"q  c #725626",
"w  c #735827",
"e  c #73562A",
"r  c #704B35",
"t  c #6F5736",
"y  c #6C5935",
"u  c #69583A",
"i  c #775335",
"p  c #795536",
"a  c #7B5439",
"s  c #7F583A",
"d  c #3E3445",
"f  c #3D364A",
"g  c #573C45",
"h  c #583B43",
"j  c #693F40",
"k  c #5F4146",
"l  c #654343",
"z  c #6B4345",
"x  c #66454B",
"c  c #6C454A",
"v  c #6D4A4C",
"b  c #744545",
"n  c #7B4545",
"m  c #734847",
"M  c #73464A",
"N  c #784748",
"B  c #754A4A",
"V  c #7C4C4C",
"C  c #725748",
"Z  c #624C59",
"A  c #734C54",
"S  c #7B4E53",
"D  c #754C59",
"F  c #794F5C",
"G  c #735353",
"H  c #7D5252",
"J  c #7B545C",
"K  c #715959",
"L  c #7F5858",
"P  c #6C4D60",
"I  c #7E5660",
"U  c #7C5A65",
"Y  c #725F6D",
"T  c #6F6767",
"R  c #6F6B6B",
"E  c #706464",
"W  c #786464",
"Q  c #77616E",
"!  c #79646F",
"~  c #7A6868",
"^  c #80573C",
"/  c #814747",
"(  c #824E4E",
")  c #894E4E",
"_  c #84534C",
"`  c #834F52",
"'  c #855252",
"]  c #895353",
"[  c #8F5151",
"{  c #8F5252",
"}  c #885454",
"|  c #8B5555",
" . c #8A5554",
".. c #895655",
"X. c #895757",
"o. c #8C5555",
"O. c #8E5655",
"+. c #8C5757",
"@. c #8F5757",
"#. c #8B5555",
"$. c #855857",
"%. c #8D5857",
"&. c #80565B",
"*. c #865758",
"=. c #80565C",
"-. c #82575C",
";. c #84565A",
":. c #895758",
">. c #8C545B",
",. c #855B5B",
"<. c #875D5D",
"1. c #865A5A",
"2. c #885858",
"3. c #8A5959",
"4. c #8B5A59",
"5. c #8B5A5A",
"6. c #8E5B5B",
"7. c #895D5D",
"8. c #8B5C5C",
"9. c #8B5D5F",
"0. c #8A5E5E",
"q. c #8C5C5C",
"w. c #8F5F5F",
"e. c #8C5B5B",
"r. c #915757",
"t. c #905656",
"y. c #925757",
"u. c #935757",
"i. c #915656",
"p. c #92565B",
"a. c #915858",
"s. c #915959",
"d. c #925858",
"f. c #935959",
"g. c #915B5B",
"h. c #925A5A",
"j. c #945958",
"k. c #925959",
"l. c #805763",
"z. c #845566",
"x. c #8C5760",
"c. c #815A60",
"v. c #805B63",
"b. c #825C62",
"n. c #825965",
"m. c #875A67",
"M. c #8A5B60",
"N. c #8B5C63",
"B. c #8A5E63",
"V. c #895B67",
"C. c #8B5E65",
"Z. c #8C5E64",
"A. c #8D5C64",
"S. c #865F6B",
"D. c #895F6B",
"F. c #925B61",
"G. c #816267",
"H. c #8F6060",
"J. c #8F6161",
"K. c #8B6067",
"L. c #8F6161",
"P. c #816368",
"I. c #836569",
"U. c #8A6168",
"Y. c #8F636A",
"T. c #906161",
"R. c #916262",
/* pixels */
"                                      I W P.L =.*.P.=.U                 U c.P.' &.b.I.U b.                                      ",
"                  Q J D F           l.} } q.X.2.X.4.y.n.                I @.q.:.4.@.6. .' n.          D A I !                   ",
"          Y G V V H ( V V V S S     U.q.y.d.d.g.f.f.@.J                 J f.g.d.q.@.y.j.R.m.  D A A A B V _ ' ( ` L Q           ",
"    J     I V ' ' ] ' V b b n B V S H ' ` 1.( ` ' ,.' A                 A ' 8.` ' ' 8.( ' ` B K T T m b n ' ' ` ' V I     S     ",
"  A } X.2.H V V V ' V ( V V V b b 5 ) 6.y.f.@.H.y.f.d.L                 J j.j.f.R.y.f.@.>.` r G R E B V N ( ' ' ' V H ' :.} A   ",
"  z ) [ [ ' V H ' ' ' V n / / n V V ' 4.@.2.] X.' 8.} S                 S X.8.X.X. .1.@.4.` V V b b 5 n V ' ' ( ' H } [ { ] z   ",
"  M ( ' ' ( V ' ( H ( n b V V V V / ( } ' 1. .1.X.q.@.J                 J @.q.X.2. .1.] } ( b b G K B b n ` ' ' ' V ( ' ( ( B   ",
"  z ( ' ` H V V V ' ( V n n n ` ' ' 2.q.y.f.f.F.y.f.y.8.N.D.N.U.C.Z.C.N.8.d.f.d.R.y.j.y.Z.@.' &.~ W V n V _ ' ' ( ' H ( ( ( v   ",
"  z ) t.] ' ' H ' ' } $.' $.' ' } &._ ` ' *.( _ ' ,.' ' _ 1.] ` _ :.2.] ' X.2.' ' ' ,.' ' ] 1.] ' ] X.' 1.' ) ' ' V ' o.t.) v   ",
"  c ( V V V V V V H V ( ' ' ' ' X.@.:.q.@.f.4.F.d.j.d.R.j.j.j.R.h.h.j.g.R.j.j.f.g.f.f.y.8.@.4.} X.' 1.' ( ' ' ( ( S V ( / ( B   ",
"  x m m n V V ' ' ' ' 2.[ ] 2.2.X.4.:.2.X.4.X.2.X.8.} :.X.q.@.:.} 8.q.X.X.X.8.@.2.X.8.X.2.@.@.@.8.@.X.[ 2.X.] ' ' ' H V V V v   ",
"  v m B V V V ' ( ' ' S ' &._ ' ' 1.} } X.4.@.2.@.q.@.q.@.g.>.p.d.f.g.4.q.f.q.4.4.@.q.X.X.X.,.' ' ' 1.' ' ' ' ' ' V V V B b A   ",
"  x m N V H V H ` S ' ' ' ] X.X.( ) _ ' / V n H n n b V j n j V m j b b B n n n V n V / ' ( ( ) 2.' ] ] 2.X.' ] ' ' H V V m x   ",
"  v B V V n N B j j r 3 < < , < , < , 2 1 1 2 2 3 l 4 3 r z j j 4 z z 4 4 3 l 3 3 2 3 < < < < < < < < < 1 4 4 j B N n V V V A   ",
"Z 4 2 < ; - ; ; , 1 3 z m B V ' ' } 2.2.%.f.y.Z.f.h.f.R.j.j.j.R.h.j.j.g.F.j.j.j.R.d.f.@.2.X.X.' ' V V m z 3 1 , ; ; ; , < 2 3 Z ",
"> * = - < z b S ( ] ' 2.[ o.2.2.@.@.%.2.@.4.X.2.@.q.X.2.X.8.@.X.d.4.q.@.4.%.q.X.2.4.q.@.q.@.4.@.8.X.@.{ ,.} } _ H m l 1 - * = h ",
"d - 2 m V V V ' V ' V S ' H ( ( ' $._ ` } 1.' } ] 8.' 2.X.q.@.2.@.4.4.X.X.X.q.} '  .1.] ' ' 1.' ' ( 1.' ` ( ' ( ' ( V V m 2 - f ",
"  k m n B S V V ( ' } '  .X.2.q.@.@.q.g.y.d.f.R.f.f.j.R.f.@.n B b n t.h.F.j.j.j.R.j.j.@.F.@.y.@.8.X.@.] *.] $.' _ H ' V V B x   ",
"  c m B V V V z 4 V ' ' ' ' ' ' ' ' ' ' ' 1.( ' ' ,.' ' ( B * $ $ * b ' ] ' ,.' } ' 1.] } ' 2.X.' ] *.] *.' V 4 z V V H B V v   ",
"  x m b N H B , * l _ ( ' ' ' ' X.2.X.2.X.f.@.q.d.f.d.R.j.( - = = - ( h.H.f.f.4.w.@.f.@.1.o.2.X.X.' 2.' _ ' v * , V S / V b x   ",
"  c B m V V V 5 $ b ' 2.} } 4.4.@.X.@.4.@.4.@.2.@.q.@.4.@.H = * * = V 4.%.@.4.@.6.@.4.@.q.@.@.{ q.@.@.] 2.] b $ 5 ( V V V V B   ",
"  z b B V V V ' 1 4 ( V ' ' ( ( ' ,.( ' ' 1.' } ' 8.' ' ' V = * $ = N X.X.X.8.] } ' 1.' ' ' 1.' ' ( 1.' ` _ v 2 ( H ` V b b x   ",
"  c m m N V V / b n ' *.] } 4.q.@.@.f.q.y.j.d.R.j.j.j.R.j.( = = = = ( g.R.j.j.j.R.@.j.j.R.d.y.t.q.@. .] :.] V j n V ' V V V B   ",
"  c b B V V ( } ' ` ' ' } } ' ' ' ' ' ' ' 1.` ' ' 8.( ] ( G         m  .' ' 8.' ] ' 8.] ] ` 1.} X.' ' X.' } ' H ' ( V V N M v   ",
"  c m m B H V / / / ( ' ' ' ' ' X.' X.2.@.2.@.8.@.f.4.Z.d.' N     B _ g.g.f.q.d.q.@.4.y.2.@.q.} ' ] X.' ' ' 1./ / ( ' V V B v   ",
"  c m V V V V ,.$.] ' 1.] X.2.2.@.@.4.q.y.4.@.8.@.q.@.6.@.4.@.8.q.q.4.f.q.@.q.@.4.y.g.4.8.@.4.{ q.X.[ ] 2.] ' ' ,.( V V V B B   ",
"  c b B B V V V H H / ( ' ' ( ( ' *.( ' ' 1.( ' } 8.' ] ] 8.X.] ` 2.2. .} } 8.' ' ' 2.' ' ` 1._ ' ' 1.` _ ` ,.( ( V ' V V b x   ",
"  c m b V H V H ( ' ' *.] X.X.2.@.y.4.g.y.j.f.R.@.j.j.R.j.j.j.R.g.j.j.F.F.j.j.f.R.j.f.y.J.@.y.y.8.@.@.} :.' ' ` H ' V V V V B   ",
"  z b B V V V ' ' ' ' ' ' ' ' ' ' 1.] ' ' 2.' ' } <.' ' ' 8.} ] ` X.2.] ' X.,.] ' X.8.' X.] 2.] ' ] 1.] ' ' ' ` ' ( ( V B b z   ",
"  c m N N H V V V H V ' ' *.' } ' X.X.2.@.4.@.4.@.6.@.q.4.f.4.q.f.4.f.4.q.f.g.%.2.@.q.@.2.X.2.' X.' X.' ] ` 1._ ( ( H V V V B   ",
"  z m B B V V ' _ ] } 2.X.X.4.2.@.@.X.4.{ 4.d.q.%.g.d.q.d.g.f.g.4.f.f.q.q.@.g.4.g.y.y.t.q.y.@.@.8.[ @.] 4.} ] _ $.V / H N m c   ",
"  c m b V H V V S H V / ' H ( ( ' ,.( ( ' 1.` ' _ <.` ' ' 2.' ' ( 1.2.' ' } 8.] ' ` <.] ` _ 1.' ' ( ,.' ( ( &.S ( _ S V V V c   ",
"  z m B V V V ' ` ' ' ' } { 4.4.@.@.f.R.y.f.f.R.f.f.j.R.j.j.j.R.g.j.j.g.R.j.j.d.R.j.y.y.J.@.f.@.8.X.@.] 1.' ' ' ' ( V V V B N   ",
"  z m B V H V H V ' ' ' ' X.' ' } *.} ' ' 2.' ' ] 8.] X. .1.@.' } 4.8.} X.@.8.] X.X.8.] X.' 2.' '  .2.' } ` } ( ' V H V V m z   ",
"  M m b B H V V H ' ( ' ' ' ' ' ' 1.X.' @.2.@.X.X.q.2.2.X.q.2.6.4.q.q.4.8.@.q.:.2.X.N.{ 2.X.2.]  .' 1.' ' ` ' ( ' H ' V V V B   ",
"  l b B V V V ' ` _ X.2.} X.4.2.[ @.4.q.@.f.4.J.f.g.f.R.f.j.f.R.h.j.j.g.Z.d.f.f.J.@.f.t.q.f.y.@.8.@.X.[ <.} } _ ' V V V N b z   ",
"  z N N N S V V V H ( ( ' H ( ( ' ,.( ( ` =.` ' ' ,.' ' ( 8.' ' _ 1.1.' ' } <._ ' ' ,._ ' ( <.' ( _ 1.' ( ( ' ' ( ( S ( V B B   ",
"x m B B V ( ( ' ` ] ' ' ]  .2.4.X.[ 4.2.>.| @.q.y.y.y.q.y.j.y.g.f.y.y.f.g.y.y.y.J.@.y.@.q.X.@.@.8.{ X.] :.] ] ` } ( ( V V B B x ",
"h , < , < < < < < 1 1 1 1 1 3 2 2 2 2 3 2 r 3 3 2 3 2 3 2 3 3 2 2 4 2 2 2 2 3 2 3 2 3 2 2 2 3 2 1 2 1 < 1 < 1 < < < < < < , , g ",
"  = ; , > r 4 z z m b B B H B V H H H H H ' H H ' ,.' ' ' ' ] ' ' ' ,.' ' ' &.' H ' $.H ' H H V S V H V V b m m z z j 1 , ; =   ",
"  3 z V V V ( ' ' ] X.2.@.] 2.4.4.y.f.q.f.f.f.J.f.f.j.R.j.h.j.R.g.f.j.g.R.f.f.j.R.@.j.j.J.f.@.@.8.@.@.{ 2.] ] ' ' V V S V z 3   ",
"  M m V b H V V V H V / H ' ( ( ' ' ( ( ' ,.( ' ' ,.' _ ` <.' ` ` *.1.' } ' ,.' ' ' 1.' ( ' <.' ` ` ,.' ' ' ' ` ( _ ' V V V N   ",
"  3 m B V V V ' ( ' ' ' X.@.2.2.2.4.f.q.y.f.d.q.@.f.f.R.j.f.f.R.g.f.j.g.F.f.f.d.w.y.f.@.J.@.@.@.2.@.2._ l 3 3 1 1 1 1 m V m z   ",
"  b B b m H V S H ' ' ' ' ' ' } ' 2.X.X.X.4.X.2.@.2.@.q.@.q.@.2.@.f.4.4.2.@.8.@.2.X.6.@.2.[ 2.] '  .2.V & + + + $ + < S V V b   ",
"  j m V V V V H V ' ' ' ' } ' ' ' *.' } ' 1.' } ] 8. .'  .q.2.' } 1.4.X.} @.8.} X. .1.] X.] ' X.' ' 2.V o o X . O , V V N b z   ",
"  r m B V V H ' ' ' ' 1.] o.4.2.y.y.4.q.d.f.f.R.@.j.j.R.j.j.j.F.h.j.j.g.F.j.j.f.R.j.y.j.w.y.y.t.J.%.o.V # o o o @ V @.` V m m   ",
"  c m m N H V V V ' V ( H ' ( ( ' &._ ` ' 1.` ' ' <.' ' ' <.} ' ] :.2.` ' X.2._ ' ' 1.' ' ( <.' _ _ $._ e 9 6 6 r ,.' V V V b   ",
"  z b B V V V ' ( ' ] $. .X.2.%.o.@.4.2.@.f.@.q.%.f.y.q.%.f.f.g.4.d.g.q.q.@.g.f.q.y.4.y.q.@.%.@.q.O.o._ w w w q s @.] ' B m z   ",
"  z B N V C V V ( ' V ' ' 1.' ' ' 2.:.X.@.4.@.2.@.q.@.q.@.4.d.q.f.q.4.f.q.@.q.@.8.@.4.@.2.@.2.X.:.} :._ 0 6 9 q a 1.' V / V N   ",
"  z m B V V ( S S ' ( ' ' ' ' ' *.' ' ' } 1.' ' ' 8.' ' ' 8.] ' ' 2.2.] ' } <.} ' ] 8.' ' ] 2.' } ' *._ 8 9 6 9 a @.X.H V m z   ",
"  c m B V V V ' ( ' ' 1.] X.2.q.@.@.q.g.y.d.f.R.j.j.j.R.j.j.j.R.g.j.j.g.R.j.f.j.R.d.y.y.R.f.@.@.q.@.} _ e q 9 q a 2.X.` V V B   ",
"  z m N N H V V V ' V ( ' ' ( ( ' *._ ' ' 1.` ' ] 1.' X.] 8.X.] ] 2.2.] ] X.8.] ' ] 8.' ' ' 1.' ` ( 1._ 0 9 9 w a 2.' ( V B c   ",
"  z b B V V V &.' ' ' ' ] X.X.2.@.X.%.4.y.4.@.q.@.4.%.6.@.6.4.q.4.q.f.@.6.4.f.@.q.y.4.y.2.@.4.{ 4.@.:._ e q 9 q ^ @.] ' B b c   ",
"  c B m N H V V V H ' ' ' ' } X.X.@.X.2.@.4.%.q.d.f.%.F.4.f.j.g.j.f.f.q.g.y.f.4.Z.@.4.@.4.@.4.@.2.' 2._ e 9 9 w a &.' ( V V M   ",
"  z b B V V V H ' ' ' ` ' } _ ` ' &.( ' ' 1.( ' ' ,.' ' ( 8.' ' ( 2.1.` ' ' <.' ] _ 8.' ' ' <.} } ' 2._ e e q w ^ y.@.H B m z   ",
"  M M b N H ( _ _ ' ' *.} @.2.4.@.@.f.q.d.d.f.R.y.j.j.R.j.j.j.R.g.j.j.g.R.j.j.f.F.j.j.@.Z.@.@.{ q.4.{ _ e 7 w w a 2.' ( V V B   ",
"  z b V V H V V S H V ( ' ' ( _ ' &._ ' ] 1.' ' } 8.] X. .6.X.X.@.2.2.X.@.X.8.] X.] 2.] ] ' <.} ` _ 1._ 8 6 9 9 a 2.' ' V b z   ",
"  z m B V V V ' ( ` ' ' ' X.:.*.X.@.:.4.@.4.@.4.X.q. .X. .1.@.%.@.4.2.@.2.@.q.X.2.@.6.X.2.@.@.X.4.2. ._ e e 9 9 a @.X._ B B B   ",
"  c m b m H V V ( H ( ' ' ' ' :.@.X.4.4.@.f.@.H.y.f.j.R.f.j.@.H.g.j.j.g.R.j.j.f.H.y.f.y.q.@.@.{ %.X.2._ e q q q a $.' V V B c   ",
"  z b B V V ( H ' ' ' ' ' ' ( ` ' *.( ` ' &.( ( ' ,.' ' ' ,.} ' ( 2.1.' ' ' 2.' ` ' ,.` ' _ <.} ' ' $._ e 8 6 9 s @.O.' V m M   ",
"  c B b N S V ' ( ` *.' X.X.4.4.{ @.q.q.f.j.f.F.@.f.f.R.d.j.d.F.g.g.d.g.g.j.f.f.R.d.d.d.J.@.{ y.q.@.{ _ e 9 q 9 i *.' V V V M   ",
"  x M B V V V V S ' V ( ' L ( ( } *.` } ' 1.' :. .q.@.2.>.q.@.2.@.@.q.@.6.2.q.X.:.X.8.} X.] <.} ' ( 1._ 0 9 q 9 a 4.X.' V c x   ",
"        D S ` &.` ] :.*.} } X.X.| :.X.X. .2.} X.' 8.'  .] 8.| | } *.q.} X.} 8.] 4.{ 8.} :.} >.X.2.@.X._ t y y u C   z.          ",
"                          l.x.m.>.>.V.F.d.x.F.F.j.p.q.Y.F.p.F.R.F.p.p.F.Y.p.u.j.A.p.x.d.F.x.{ >.S.>.z.                          "
};
