/* XPM */
static char *_1c442a51d41456ffb59ff961cf0c386uU2sIDnlyBsaBCir[] = {
/* columns rows colors chars-per-pixel */
"59 60 65 1 ",
"  c #82C6DD",
". c #89C9DF",
"X c #93CDE2",
"o c #9CD1E3",
"O c #A4D5E5",
"+ c #ACD7E6",
"@ c #AED8E7",
"# c #ACD9E8",
"$ c #B1D7E4",
"% c #B3D9E6",
"& c #BBDBE7",
"* c #B5DCE9",
"= c #BBDDE9",
"- c #BEE0EC",
"; c #C2DFE9",
": c #C4E2EC",
"> c #CBE4EC",
", c #D3E6ED",
"< c #D9E7EC",
"1 c #D5E8EF",
"2 c #DCE9EE",
"3 c #CCE7F0",
"4 c #CEE8F1",
"5 c #D5EAF1",
"6 c #DCECF2",
"7 c #E3EBEE",
"8 c #EDEEEF",
"9 c #F0EFEF",
"0 c #E3EEF2",
"q c #EAEFF0",
"w c #E5F1F5",
"e c #EAF1F3",
"r c #ECF0F2",
"t c #E8F1F4",
"y c #E9F2F5",
"u c #EEF3F5",
"i c #ECF4F7",
"p c #E9F4F8",
"a c #EAF4F8",
"s c #EEF6F9",
"d c gray94",
"f c #F2F3F3",
"g c #F4F3F3",
"h c #F4F4F3",
"j c #F2F3F4",
"k c #F0F4F5",
"l c #F4F4F4",
"z c #F5F4F4",
"x c #F6F6F7",
"c c #F8F7F7",
"v c #F8F8F7",
"b c #F9F8F7",
"n c #F2F6F8",
"m c #F5F8F8",
"M c #F4F8FA",
"N c #F5F9FB",
"B c #F9F8F8",
"V c #FAF9F8",
"C c #FCFBFB",
"Z c #FCFCFB",
"A c #F9FBFC",
"S c #FBFBFC",
"D c gray99",
"F c #FDFCFC",
"G c white",
/* pixels */
"GlfGflG9jVqFV7GjfGffGq0y7ni8VVjSljGfgGrum9VVqVuqVcjlqjF6,aj",
"0klfllf0:gclc6ulcglgll><yu,xglxlxcfllgl1ycllcl:kxgc6=,=*@@:",
"<50fV0&::0Ggg00ccfVcfV>>y2<VllVjlVfcVr::lmkkVk@jllF7.>0Vlqy",
"Gf,-70sfg>;0u<mlfGjjFg;yf0>7VlfSlkl0:+%>5;=*=:o2Fgg5*gVjfGj",
"jcc%*lkVly,6>:llcfVVjx>0VgyyqkVfy6<3o=Vl7nr<5>@3llV;,VgccfV",
"gcc0>llclg6uy3llgglllk5gVgfgy,000jjl*0VlllllVV0*klV=wclllfg",
"Vlfy,lGfVV>nk>VxjVljGf0VrVVff6qVlgFq;NfgGqVVrVV;ylf3qfGfgFf",
"llV86cfcl2ygj62xVfVcfcq6FggV66GfjVjs>rFlfVffVkzy>lV<kcfccqV",
"lllm*5gj55jxgq>qlclkclu,jglc,0lVllVu,clllglclgct-klw0ccglVg",
"Flk6=>0>*jjVVjs:2VcjVjg5qVcl6yjVjfVq,VgcVfVcgccq*lly>fbflVj",
"9Vy,VVfs>fSflVf0*;0n8x6>GgjV0yG8lGf66qGgfGffGf04X1s2O0fVg9V",
"y5>mjgcl00fVcgcV7*=5y0=:gccfl<rVj00:,Sfgcfb0>::=o%:5=:60uny",
",,5cglggj6>,0kVll>0lllk;<0r06:7u6ykl;60uju0>0ulk:uglVgkjku0",
"fV6<VVfVlfs<,6klV0yV9cV>*;0sqkm7kVfl,qu0600fVgjV2lcfVVfVlfV",
"Fgq3qlGflGfVV;slgV6qGfl6qlVjVckVlgGu>SjlVlcVfcVqklfGjjSjlGf",
"fgV20mjcllffy=,uVly6kVk0VllVllVlllfl5jVljlllVllk0ccllVglcgl",
"llV06cfbkfVj<u066<06fftrVllVklVkVVjc60VlkbggVllk>uVjgcfVljV",
"Glj6;lVfcVjuwfVm70>0G80VrVVrFlgFljSg<:qlVgVVqVV7>>7GlfFflFj",
"ff5>,6fVlgF7yVllcgyugy6jVllVllVjlVlVy2ytlVkjGjlm0q3qVcfVljc",
"0,0ll6>jllk>ry<0ccy6f6*jVllVllllclkl0jk0ucllllll0g0,xlllclj",
"njjVfl3OkV7*>26><65@06*><0y0nVjVljn,<Gjl0jVVrVcf0uj60kFgj6>",
"8ccfVn;3>05o>Vfkn0k38Fcrn0qV21y<5:*=>jVl<VgkVjfG6uVq0y706<m",
"VlgVk>6lkkr06gVljVg<uglxjlVklk0yjut>5ckk0jlxccVl0ulVlu>:lVl",
"FgjVr6VllVlk6jVlfVl06flVjVxjVljbljb0*uguwjxVflglkjkVllu0lVl",
"qxVqynjVlgGf0GkzFjVV,ylkSljVjlGfVVfV6>u,1VrqmtfG>6G9cV7sbqV",
"Ggjl7lVfgVfl08VmfVkll10lllVjVljcllVj0w00srkn7tt,6y2mll62fGg",
"jggu0lllgclc00jlllllllqtjgVlllflllck,ugVlllczcl>6V05yk1qVgj",
"fcF26VfSjfGg05fjVfxVlVc75yjVllVflVf0,fVlfGlfbguu7lVqu6>VgtV",
"Fjq3>0mrVVqu62ujfVllGffG76VqVVrGlkG<0GfVVqbVrbV<sVgblr0ggFf",
"1>=qlu>>5562jVj>:10ukujqg6jVllbglll60llllVllVlk6rllgut,yu6<",
"r:2gVlr5+*llkVg,5q00q6,>:5gVllVjcVl>=fVlfVlgbz0kllb7*t6>=>y",
"#%fGjlVf062VcfF68GljSjgF26VfVcdSgfy==:7lVfVFj15<sk8*>gGq,==",
"$:VfVVjSll:2gVj6xkcVjVljV5qF0,y0uu<nV65<qxt7:.*3>>:+uVjVVfn",
"6=lllxglVl65VcyqlllxllVlx6O>3*;>1jllxcj>*520;oyglly>lllllll",
"x*tFjlVjgVq5c26gfVlkSjlVq>:qV60VgfGjlVll3,cF0:llVlj0kjSjfGl",
"8>0fVgfVllm#1=>lVjVVfVlfm,fFj00jlSdVljVjq3rg5<lVjlm,VVjVcqV",
"V05VllVjgVq:jq3>jVllVlgcguglVu>cllVjgVlVc,ys,cVjxx0=llVggVl",
"Vk=6llVllmq0xll::mlllllcquVjc0+0llVjlmllV66w0lljVl:,lgxjgVl",
"fu5:6mjVlls2lVjly<mVlVcf56jVj>0>lFrVVjFlfyo@VflGjj:7VVfVlqV",
"Vr<m:>60kw;nVfVcjm0<nr06<000V6j5,kFglVjgl>5:,ccfVu=SlkVjlGg",
"ll6jljy06=:ygglclV5O*O,ylcu,:=0l*:xlxxgj0uck>>yll0=lVlggllg",
"gc6qVlfVlgx5yFgln<>ur:yjGklV6*3&%:=us<5&2GllV6=6f5*fVVfcljV",
"Gl2nllVfcVjn0rV02nklGq>m8cn7yyq=$jw>,5:@>jkVfVnOO=@6klGflGj",
"ll1tVljVllVg00>6VgcggrO>605yjlVj>kgVgfV0=lllcklw+jk>0kgcljc",
"<:*jlllVlgbklu-jlglVj01jljjVllVl6yjlglVl=yljcllV50cjt60lcfu",
"y0>SjlG8lVfVVqylfGllG7yVjVcfVcjV58GlfSjl=>VVflcfj<jVgu6==3>",
"fl5qVVfSllGjlm6jVkVVfu0jGlfVjgFq5VflVfGlOXqjVlfV66VjVVly=rl",
"lg00lcllVlllc6-lxljggf6fflclgcc:5Vlllcj0o;:0lcll=,60yglk>kl",
"Vll6*1nqllqs0>:yjVjfV7=yqxmqay=XqjVllFg2*gu5<06@=tqn,>s0,Fj",
"qVVr>X=656y00mq0VfVVf6:*y00y>>3+uVqSVqG0=Fjfx005<cVkmy&*09V",
"VllVj5ljlVgcllV0uVlfu>1ufgcfcVl,qlVllcg0=0y0>;:#-lllll0;lFf",
"VllVr>mjlcglxlV>@uu006kmjVgjgll50gmllcf;>klljw6:OjlVlks<lcj",
"8uy76+qFllGfjn,>6>3jqGffGffVfgG66SjVVq50fVkgFggG&6VfVVj60fb",
"6>>3*%6flVfcu<sVqS6uVlgVlVVfbcf0O>ur0*0cVfVVfVcg:0jVllV0+*>",
"ulclu:*uclu66jlllc0ylclllllmg0:+::>;o >glccljllk=jcgljlV0+0",
"fcVjVc2:0>:7kSjjlq50gVllVllb2,wqlVjxj2,6jVljVll6@0sfVVjVy<V",
"GgfVflV7+X>ncq65,6:>xjuVlVV7aVfVljSfzG90kqVVfVl;w67nljGf75g",
"ffVjcVjV><l06;2lVgcy>uckck66llVfmVllcfcu0VljVl66lVx6xlfc5>V",
"glllflfV6fVk0&jgcglV0<ygu,=kllVlgfllfgby<bllVl<ullx,0cgf=>c",
"GffGfgG8jGqVV7GgfFjgGqqF0sj8VVqVzfGlfGfumqbGqVsqGgjnqfGf6ng"
};
